<?xml version="1.0" encoding="utf-8"?>
<!-- Generator: Adobe Illustrator 19.2.1, SVG Export Plug-In . SVG Version: 6.00 Build 0)  -->
<svg version="1.1" id="layer" xmlns="http://www.w3.org/2000/svg" xmlns:xlink="http://www.w3.org/1999/xlink" x="0px" y="0px"
	 viewBox="0 0 652 652" style="enable-background:new 0 0 652 652;" xml:space="preserve">
<style type="text/css">
	.st0{fill:#302F7D;}
</style>
<g>
	<path class="st0" d="M476.1,242.3v-26.6h93.7v26.5c-2.2,0.7-2.4,0.5-3.1-1.6c-1.2-3.4-2.3-6.9-4-10c-2.9-5-7.3-8.3-13-8.9
		c-4.6-0.4-9.3,0-14.1,0l-0.1,1.1c0,25,0,50.1,0,75.1c0,2,0.1,3.9,0.1,5.9c0,5.9,3.8,8.1,8.3,8.7c2.1,0.3,4.1,0.2,6.4,0.4v2.4h-54.4
		v-2.4c1.7-0.1,3.6,0,5.4-0.3c2-0.4,4-0.9,5.8-1.8c1.8-0.9,2.7-2.7,2.9-4.7c0.2-1.9,0.4-3.9,0.4-5.8c0-25.6,0-51.1,0-76.7v-2.1
		c-6.3,0-12.6-0.7-18.6,1.6c-5.6,2.2-8.7,6.8-10.9,12.3c-0.7,1.6-1.1,3.3-1.5,5C478.8,242.8,478.8,242.8,476.1,242.3"/>
	<path class="st0" d="M295.4,215.7h49.7v2.5c-1.9,0.1-3.9,0.2-5.8,0.3c-6.6,0.6-8.2,3.2-5.5,9.3c7.7,17.4,15.6,34.8,23.4,52.2
		c0.7,1.7,1.5,3.4,2.4,5.3l0.7-0.9c7.8-16.8,15.7-33.6,23.4-50.5c0.9-2,1.6-4.1,2-6.3c0.7-4.3-1.1-7.2-5.2-8.3
		c-2.6-0.7-5.3-1-8.1-1.5v-2.2h34v2.5c-8.8,1.6-12.6,8.7-16.1,16c-7.3,15.1-14.4,30.2-21.6,45.3c-5.7,12.1-11.5,24.2-17.2,36.3
		c-0.5,0.9-0.7,1.8-2.1,1.7c-1.3,0-1.5-0.9-1.9-1.7c-12.5-27.6-25-55.2-37.5-82.7c-1.4-3-3.1-6-4.5-9c-1.7-3.6-4.6-5.2-8.2-5.7
		C295,218.2,294.9,218.2,295.4,215.7"/>
	<path class="st0" d="M465.7,215.7v2.4c-2.3,0.1-4.5,0.2-6.6,0.4c-4.9,0.5-7.4,3.2-7.8,8.2c-0.2,2.3-0.3,4.6-0.3,6.8
		c0,21.4,0,42.7,0,64c0,2.2,0.1,4.4,0.3,6.6c0.4,4.8,3,7.6,7.8,8.1c2.2,0.2,4.4,0.3,6.7,0.4v2.4h-54.4l-0.1-2.4
		c2.2-0.1,4.2-0.2,6.2-0.4c5.6-0.5,8.2-3.2,8.3-9c0.1-17.8,0.2-35.7,0.2-53.5c0-7.7-0.1-15.4-0.3-23.1c-0.1-4.8-2.9-7.7-7.6-8.2
		c-2.2-0.2-4.4-0.3-6.7-0.4v-2.4H465.7z"/>
	<path class="st0" d="M579.9,193.8c-5.7,0-10.3,4.7-10.3,10.5c0,5.8,4.6,10.5,10.3,10.5c5.6,0,10.1-4.7,10.2-10.4
		C590.1,198.5,585.7,193.8,579.9,193.8 M581.4,192.8c2.7,0.9,5.2,1.9,7.1,4.2c3.9,5,3.2,12.4-1.6,16.2c-4.9,4-12.1,3.2-15.8-1.8
		c-3.9-5.2-2.9-12.6,2.2-16.3c1.5-1.1,3.5-1.6,5.2-2.3H581.4z"/>
	<path class="st0" d="M577.5,204l2-0.1c1.7-0.3,2.6-1.5,2.4-3.3c-0.2-1.6-1.5-2.8-3.1-2.6l-1.2,1.2
		C577.4,200.7,577.5,202.2,577.5,204 M577.7,204.2c-0.5,5.4-0.4,5.9,1.6,6.8h-5l0.8-2.7c0.1-2.8,0.1-5.6,0-8.5
		c0-0.8-0.5-1.6-0.9-2.8c2.4,0.1,5.1,0.2,7.7,0.6c1.4,0.2,2.2,1.3,2.3,2.9c0.1,1.6-0.6,2.7-2,3.4l-1.4,0.6c1.7,2.3,3.2,4.5,4.7,6.5
		c-2.1,0.5-2.2,0.4-3.5-1.5c-0.9-1.3-1.8-2.6-2.7-3.9L577.7,204.2z"/>
	<path class="st0" d="M620.5,338.4c-2.2,0.1-4.4,0.2-6.7,0.2H270.1h-2.2v-4.6h2.6h186.6h160.5l2.9-0.1V338.4z"/>
	<path class="st0" d="M296.7,416.6c3.3,0.8,6.5,1.1,9.7,1.1c5.1,0,9-1.1,11.6-3.4c2.7-2.3,4-5.1,4-8.5c0-2.2-0.6-4.4-1.8-6.4
		c-1.2-2-3.2-3.7-5.9-4.9c-2.7-1.2-6.1-1.8-10.1-1.8c-1.8,0-3.2,0-4.5,0.1c-1.2,0-2.2,0.1-3,0.3V416.6z M296.7,389.3
		c1,0.2,2.2,0.3,3.6,0.4c1.3,0.1,2.8,0.1,4.4,0.1c4.1,0,7.2-0.4,9.2-1.3c2.1-0.9,3.6-2.2,4.7-4.1c1.1-1.8,1.7-3.8,1.7-6
		c0-3.4-1.4-6.2-4.1-8.6c-2.7-2.4-6.7-3.6-11.9-3.6c-2.8,0-5.3,0.3-7.6,0.9V389.3z M318.8,391.6c4,0.9,6.9,2.2,8.9,4.1
		c2.7,2.6,4.1,5.8,4.1,9.5c0,2.9-0.9,5.6-2.7,8.2c-1.8,2.6-4.3,4.5-7.4,5.7c-3.1,1.2-7.9,1.8-14.4,1.8h-27v-1.6h2.1
		c2.4,0,4.1-0.8,5.2-2.3c0.6-1,1-3.1,1-6.3v-37c0-3.5-0.4-5.8-1.2-6.7c-1.1-1.2-2.7-1.9-4.9-1.9h-2.1v-1.6h24.7
		c4.6,0,8.3,0.3,11.1,1c4.2,1,7.4,2.8,9.7,5.4c2.2,2.6,3.3,5.5,3.3,8.9c0,2.9-0.9,5.4-2.6,7.7C324.8,388.8,322.2,390.5,318.8,391.6"
		/>
	<path class="st0" d="M354.3,390.1h26.6v-16.4c0-2.9-0.2-4.9-0.6-5.8l-1.8-1.8c-1.2-0.7-2.5-1-3.8-1h-2v-1.6h24.5v1.6h-2
		c-1.3,0-2.6,0.3-3.8,1l-1.8,2c-0.3,0.9-0.5,2.8-0.5,5.6v36.9c0,2.9,0.2,4.8,0.5,5.7l1.7,1.8c1.2,0.7,2.5,1,3.9,1h2v1.6h-24.5v-1.6
		h2c2.3,0,4-0.7,5.1-2.1c0.7-0.9,1-3.1,1-6.5v-17.4h-26.6v17.4c0,2.9,0.2,4.8,0.6,5.7l1.8,1.8c1.2,0.7,2.5,1,3.8,1h2.1v1.6H338v-1.6
		h2c2.4,0,4.1-0.7,5.2-2.1c0.7-0.9,1-3.1,1-6.5v-36.9c0-2.9-0.2-4.9-0.5-5.8l-1.8-1.8c-1.2-0.7-2.5-1-3.9-1h-2v-1.6h24.5v1.6h-2.1
		c-1.3,0-2.6,0.3-3.8,1l-1.8,2c-0.3,0.9-0.5,2.8-0.5,5.6V390.1z"/>
	<path class="st0" d="M429.7,365.3c-5.1,0-9.2,1.9-12.3,5.7c-3.9,4.7-5.8,11.6-5.8,20.8c0,9.3,2,16.5,6,21.6
		c3.1,3.8,7.1,5.7,12.2,5.7c5.4,0,9.8-2.1,13.3-6.3c3.5-4.2,5.2-10.8,5.2-19.8c0-9.8-1.9-17.1-5.8-21.9
		C439.5,367.2,435.2,365.3,429.7,365.3 M430.5,362.3c7.4,0,13.9,2.8,19.3,8.5c5.4,5.6,8.2,12.7,8.2,21.1c0,8.7-2.7,15.9-8.2,21.6
		c-5.5,5.7-12.1,8.6-19.9,8.6c-7.9,0-14.5-2.8-19.9-8.4c-5.4-5.6-8-12.8-8-21.7c0-9.1,3.1-16.5,9.3-22.2
		C416.6,364.7,423.1,362.3,430.5,362.3"/>
	<path class="st0" d="M479.1,391.6c1.5,0.3,2.8,0.5,4,0.6c1.2,0.1,2.1,0.2,2.9,0.2c2.9,0,5.5-1.1,7.6-3.4c2.1-2.3,3.2-5.2,3.2-8.8
		c0-2.5-0.5-4.8-1.5-6.9c-1-2.1-2.4-3.7-4.3-4.8c-1.9-1-4-1.6-6.3-1.6c-1.4,0-3.3,0.3-5.5,0.8V391.6z M479.1,394v16.7
		c0,3.6,0.4,5.8,1.2,6.7c1,1.2,2.7,1.9,4.9,1.9h2.2v1.6h-24.5v-1.6h2.1c2.4,0,4.1-0.8,5.2-2.4c0.6-0.9,0.9-2.9,0.9-6.2v-37
		c0-3.6-0.4-5.8-1.2-6.7c-1.1-1.2-2.7-1.9-4.9-1.9h-2.1v-1.6h21c5.1,0,9.2,0.5,12.1,1.6c2.9,1,5.4,2.8,7.4,5.3c2,2.5,3,5.5,3,8.9
		c0,4.7-1.5,8.5-4.6,11.4c-3.1,2.9-7.5,4.4-13.1,4.4c-1.4,0-2.9-0.1-4.5-0.3C482.6,394.7,480.9,394.4,479.1,394"/>
	<path class="st0" d="M539.8,398.5l-9.7-23.1l-10,23.1H539.8z M541,401.6h-22.2l-3.9,9c-1,2.2-1.4,3.9-1.4,5l1.2,2.3
		c0.9,0.7,2.6,1.1,5.4,1.3v1.6h-18v-1.6c2.4-0.4,3.9-1,4.7-1.7c1.4-1.3,3-4.1,4.8-8.2l20.1-47.1h1.5l19.9,47.6
		c1.6,3.8,3.1,6.3,4.4,7.4c1.3,1.1,3.1,1.8,5.5,1.9v1.6h-22.6v-1.6c2.3-0.1,3.8-0.5,4.6-1.1l1.2-2.4c0-1.2-0.6-3.2-1.7-5.9
		L541,401.6z"/>
	<path class="st0" d="M613.4,404.9l1.4,0.3l-4.9,15.5h-44.3v-1.6h2.2c2.4,0,4.1-0.8,5.2-2.4c0.6-0.9,0.9-3,0.9-6.2v-36.9
		c0-3.6-0.4-5.8-1.2-6.7c-1.1-1.2-2.7-1.9-4.9-1.9h-2.2v-1.6h25.9v1.6c-3,0-5.2,0.2-6.4,0.8c-1.2,0.6-2.1,1.3-2.5,2.2
		c-0.4,0.9-0.7,3.1-0.7,6.5v36c0,2.3,0.2,3.9,0.7,4.8l1.6,1.3c0.7,0.3,2.9,0.4,6.6,0.4h4.2c4.4,0,7.5-0.3,9.2-1
		c1.8-0.6,3.4-1.8,4.9-3.4C610.5,411.1,611.9,408.5,613.4,404.9"/>
	<path class="st0" d="M135.2,233.6c-49.3,0-89.4,40.1-89.4,89.5c0,42.1,29.2,77.5,68.5,87c2.2,0.5,4.4,1,6.7,1.3
		c3.6-0.8,6.4-1.2,8.6-1.5c-3.3-0.2-6.5-0.6-9.7-1.2c-40.7-7.3-71.7-42.9-71.7-85.6c0-48,39-87,87-87c48,0,87,39,87,87
		c0,42.3-30.4,77.7-70.5,85.4c-3.1,0.6-6.3,1-9.5,1.3c2.1,0.2,4.9,0.7,8.4,1.4c2.2-0.4,4.4-0.9,6.6-1.4c38.7-9.8,67.4-45,67.4-86.7
		C224.6,273.7,184.5,233.6,135.2,233.6"/>
	<path class="st0" d="M148.6,432.6c2,0.3,4.4,0.8,7,1.4c2.1-0.4,4.2-0.8,6.3-1.3c-1.9-0.5-3.6-1-5.2-1.4
		C154,431.8,151.3,432.3,148.6,432.6 M135.2,210.2C73,210.2,22.4,260.8,22.4,323c0,42.1,23.1,78.8,57.4,98.2
		c1.1,0.7,2.3,1.3,3.5,1.9c1.1-0.3,2.2-0.7,3.3-1.1c-1.2-0.6-2.3-1.2-3.5-1.8C48.4,401.6,24.8,365,24.8,323
		c0-60.9,49.5-110.4,110.4-110.4c60.9,0,110.4,49.5,110.4,110.4c0,41.7-23.2,78-57.3,96.8c-1.1,0.6-2.2,1.2-3.4,1.8
		c1.1,0.4,2.1,0.8,3.2,1.1c1.1-0.6,2.3-1.2,3.4-1.9c33.8-19.5,56.6-56,56.6-97.8C248.1,260.8,197.4,210.2,135.2,210.2 M115.1,431.6
		c-1.7,0.4-3.4,0.9-5.3,1.4c2.1,0.5,4.2,0.9,6.3,1.3c2.6-0.6,5-1.1,7-1.5C120.4,432.5,117.7,432.1,115.1,431.6"/>
	<path class="st0" d="M38.9,368.7l0.3-0.2c0.3,0.4,0.7,0.6,1.3,0.8c0.4,0.1,1.3,0.1,2.6,0l11-1l0.2,0.3l-6.9,9.1
		c-0.8,1.1-1.3,1.8-1.4,2c-0.1,0.3,0,0.6,0.1,1.1l-0.3,0.2l-3.1-5.5l0.3-0.2l0.1,0.2c0.3,0.5,0.5,0.8,0.8,0.9c0.2,0.1,0.3,0.1,0.5,0
		c0.1-0.1,0.2-0.1,0.3-0.3c0.1-0.1,0.4-0.5,0.9-1.1l4.4-5.7l-6.4,0.6c-0.8,0.1-1.3,0.1-1.5,0.2c-0.2,0.1-0.4,0.1-0.6,0.2
		c-0.2,0.1-0.3,0.2-0.4,0.4c-0.1,0.2-0.1,0.3-0.1,0.6c0,0.3,0.2,0.6,0.4,1l-0.3,0.2L38.9,368.7z"/>
	<path class="st0" d="M36.7,361l5-1.9l-0.1-0.3c-0.3-0.8-0.8-1.3-1.4-1.4c-0.6-0.2-1.4-0.1-2.4,0.1l-0.1-0.3l6.5-2.4l0.1,0.3
		c-0.7,0.3-1.2,0.7-1.6,1.1c-0.4,0.4-0.6,0.8-0.6,1.2c0,0.4,0,0.9,0.3,1.4l3.5-1.3c0.7-0.3,1.1-0.4,1.2-0.6c0.1-0.1,0.2-0.3,0.2-0.5
		c0-0.2,0-0.5-0.1-0.8l-0.3-0.7c-0.4-1.1-1-2-1.8-2.5c-0.8-0.5-1.8-0.7-3-0.6l-0.1-0.3l4.1-0.9l4,10.7l-0.3,0.1l-0.1-0.4
		c-0.1-0.4-0.3-0.6-0.5-0.8c-0.1-0.1-0.3-0.2-0.6-0.2c-0.2,0-0.6,0.1-1.2,0.3l-8.1,3c-0.6,0.2-0.9,0.4-1,0.4
		c-0.2,0.1-0.3,0.3-0.4,0.5c-0.1,0.3,0,0.6,0.1,1l0.1,0.4l-0.3,0.1l-3.9-10.3l3.7-1.4l0.1,0.4c-0.8,0.5-1.4,1-1.6,1.5
		c-0.3,0.5-0.4,1-0.4,1.7c0,0.4,0.2,1,0.6,2L36.7,361z"/>
	<path class="st0" d="M38.3,337.7l4.6-0.5l2.4,11.4l-0.3,0.1l-0.1-0.4c-0.1-0.4-0.2-0.7-0.4-0.9c-0.1-0.1-0.3-0.2-0.5-0.3
		c-0.2,0-0.6,0-1.2,0.1l-8.5,1.8c-0.7,0.1-1.1,0.3-1.2,0.4c-0.1,0.1-0.3,0.3-0.3,0.5c-0.1,0.2-0.1,0.5,0,0.9l0.1,0.4l-0.3,0.1
		l-1.5-6.9l0.4-0.1l0.1,0.6c0.1,0.4,0.2,0.7,0.4,0.9c0.1,0.1,0.3,0.2,0.5,0.3c0.2,0,0.6,0,1.2-0.1l8.2-1.8c0.7-0.1,1.1-0.3,1.2-0.4
		c0.2-0.1,0.3-0.3,0.3-0.5c0-0.2,0-0.6-0.2-1.2l-0.2-1.1c-0.1-0.7-0.4-1.2-0.7-1.6c-0.3-0.4-0.8-0.7-1.4-0.9
		c-0.6-0.2-1.4-0.4-2.5-0.4L38.3,337.7z"/>
	<path class="st0" d="M37.2,323.5l4.6,0.2l0.8,11.7l-0.4,0l0-0.4c0-0.4-0.1-0.7-0.3-0.9c-0.1-0.2-0.3-0.3-0.5-0.4
		c-0.2-0.1-0.6-0.1-1.2,0l-8.7,0.6c-0.7,0-1.1,0.1-1.3,0.2c-0.2,0.1-0.3,0.2-0.4,0.5c-0.1,0.2-0.1,0.5-0.1,0.9l0,0.4l-0.4,0l-0.5-7
		l0.4,0l0,0.6c0,0.4,0.1,0.7,0.3,0.9c0.1,0.2,0.3,0.3,0.5,0.4c0.1,0.1,0.6,0.1,1.2,0l8.4-0.5c0.7,0,1.1-0.1,1.3-0.2
		c0.2-0.1,0.3-0.3,0.4-0.5c0-0.2,0-0.6,0-1.2l-0.1-1.1c0-0.7-0.2-1.3-0.5-1.7c-0.3-0.5-0.7-0.8-1.2-1.1c-0.6-0.3-1.4-0.6-2.4-0.8
		L37.2,323.5z"/>
	<path class="st0" d="M29.8,313.5c-0.1,1.2,0.4,2.2,1.6,2.9c1,0.6,2.4,1,4.3,1.1c2.2,0.2,3.9-0.1,5-0.8c0.8-0.5,1.2-1.2,1.3-2.2
		c0-0.7-0.1-1.2-0.3-1.7c-0.4-0.6-1-1.1-1.9-1.5c-0.9-0.4-2-0.6-3.5-0.8c-1.7-0.1-3-0.1-3.9,0.2c-0.9,0.3-1.5,0.6-1.9,1.1
		C30.1,312.3,29.8,312.8,29.8,313.5 M29.2,313.5c0.1-2.1,0.8-3.8,2.2-4.9c1.4-1.2,3.1-1.7,5-1.6c1.7,0.1,3.1,0.7,4.3,1.8
		c1.6,1.4,2.3,3.3,2.1,5.7c-0.2,2.4-1.1,4.1-2.8,5.3c-1.3,0.9-2.9,1.3-4.6,1.2c-1.9-0.2-3.5-1-4.7-2.4
		C29.4,317.1,28.9,315.5,29.2,313.5"/>
	<path class="st0" d="M32.4,298.4l5.6,1.4l0.1-0.5c0.2-0.9,0.3-1.6,0.3-2c0-0.5-0.2-0.9-0.6-1.2c-0.3-0.4-0.9-0.6-1.5-0.8
		c-1-0.2-1.8-0.2-2.3,0.1c-0.6,0.3-1,1-1.3,2L32.4,298.4z M38.7,300l3.6,0.9c0.7,0.2,1.1,0.2,1.3,0.2c0.2,0,0.4-0.1,0.5-0.3
		c0.2-0.2,0.3-0.6,0.5-1.1l0.3,0.1l-1.7,6.5l-0.4-0.1c0.2-0.6,0.2-1,0.1-1.2c0-0.2-0.2-0.4-0.3-0.6c-0.1-0.1-0.6-0.3-1.3-0.5
		l-8.3-2.1c-0.7-0.2-1.1-0.2-1.3-0.2c-0.2,0-0.4,0.1-0.5,0.3c-0.2,0.2-0.3,0.6-0.5,1.1l-0.3-0.1l1.5-5.9c0.4-1.5,0.8-2.6,1.2-3.3
		c0.4-0.7,0.9-1.1,1.6-1.4c0.7-0.3,1.4-0.4,2.2-0.2c1,0.2,1.6,0.8,2.1,1.6c0.3,0.5,0.4,1.2,0.4,2l5.1-2c0.7-0.3,1.1-0.4,1.3-0.6
		c0.3-0.2,0.4-0.5,0.6-0.8l0.3,0.1l-1,4l-6.9,2.6L38.7,300z"/>
	<path class="st0" d="M37.6,282.6l4.9,2.1l0.1-0.2c0.3-0.8,0.3-1.4,0-2c-0.3-0.6-1-1.1-1.9-1.6l0.1-0.3l6.3,2.7l-0.1,0.3
		c-0.7-0.2-1.4-0.3-1.9-0.3c-0.5,0-1,0.2-1.2,0.4c-0.3,0.2-0.5,0.6-0.8,1.2l3.4,1.5c0.7,0.3,1.1,0.4,1.3,0.4c0.2,0,0.3,0,0.5-0.2
		c0.2-0.1,0.3-0.3,0.5-0.7l0.3-0.7c0.5-1.1,0.6-2.1,0.4-3.1c-0.2-0.9-0.8-1.7-1.8-2.5l0.1-0.3l3.6,2.2l-4.5,10.5l-0.3-0.1l0.2-0.4
		c0.1-0.3,0.2-0.7,0.2-0.9c0-0.2-0.1-0.4-0.3-0.5c-0.1-0.1-0.5-0.3-1.1-0.6l-8-3.4c-0.6-0.2-0.9-0.4-1-0.4c-0.2,0-0.4,0-0.6,0.1
		c-0.3,0.2-0.5,0.4-0.6,0.8l-0.2,0.4l-0.3-0.1l4.3-10.1l3.6,1.5l-0.1,0.3c-0.9-0.2-1.7-0.2-2.2-0.1c-0.5,0.2-1,0.5-1.4,1
		c-0.2,0.3-0.6,0.9-1,1.8L37.6,282.6z"/>
	<path class="st0" d="M58.9,268.8l0.3,0.2l-3.8,5.8l-0.3-0.2l0.2-0.4c0.2-0.3,0.3-0.6,0.3-0.9c0-0.2,0-0.4-0.2-0.6
		c-0.1-0.1-0.4-0.4-1-0.8l-7.2-4.8c-0.6-0.4-0.9-0.6-1.1-0.6c-0.2,0-0.4,0-0.6,0.1c-0.2,0.1-0.4,0.3-0.6,0.6l-0.2,0.4l-0.3-0.2
		l3.8-5.8l0.3,0.2l-0.2,0.4c-0.2,0.3-0.3,0.6-0.3,0.9c0,0.2,0,0.4,0.2,0.6c0.1,0.1,0.4,0.4,1,0.8l7.2,4.8c0.6,0.4,0.9,0.6,1.1,0.6
		c0.2,0,0.4,0,0.6-0.1c0.2-0.1,0.4-0.3,0.6-0.6L58.9,268.8z"/>
	<path class="st0" d="M52.7,255.9l10.4,0.3l-4.3-3.7c-0.6-0.5-1.1-0.8-1.4-0.8c-0.5,0-1,0.3-1.4,0.9l-0.3-0.2l2.8-3.3l0.3,0.2
		c-0.3,0.5-0.5,0.8-0.5,1c0,0.2,0,0.5,0.1,0.7c0.1,0.2,0.4,0.6,0.9,1l8.4,7.1l-0.2,0.2l-14.1-0.3l6.4,5.4c0.6,0.5,1.1,0.7,1.5,0.6
		c0.4-0.1,0.8-0.3,1.1-0.7l0.2-0.2l0.3,0.2l-3,3.6l-0.3-0.2c0.5-0.6,0.7-1,0.6-1.4c0-0.4-0.3-0.8-0.9-1.3l-7.1-6l-0.4,0
		c-0.5,0-0.8,0-1,0.1c-0.2,0.1-0.5,0.3-0.7,0.6l-0.3-0.2L52.7,255.9z"/>
	<path class="st0" d="M67.1,240.9l3,3.2l-0.3,0.3c-0.9-0.7-1.8-1-2.8-1.1c-1,0-1.8,0.3-2.4,0.8c-0.5,0.4-0.8,0.9-0.8,1.4
		c0,0.5,0.1,1,0.4,1.3c0.2,0.2,0.4,0.4,0.7,0.5c0.3,0.1,0.8,0.1,1.3,0.1c0.4,0,1.1-0.2,2.3-0.6c1.7-0.5,2.9-0.6,3.8-0.5
		c0.8,0.1,1.6,0.6,2.1,1.2c0.7,0.8,1,1.8,0.9,3c-0.1,1.2-0.7,2.2-1.6,3.1c-0.3,0.3-0.6,0.5-1,0.7c-0.3,0.2-0.8,0.4-1.3,0.6
		c-0.3,0.1-0.6,0.2-0.7,0.4c-0.1,0.1-0.2,0.3-0.3,0.5c-0.1,0.2,0,0.5,0,0.8l-0.3,0.2l-3.3-3.7l0.3-0.2c1.1,0.9,2.3,1.3,3.4,1.3
		c1.1,0,2-0.3,2.7-0.9c0.5-0.5,0.8-1,0.9-1.6c0.1-0.6-0.1-1.1-0.4-1.5c-0.2-0.2-0.5-0.4-0.8-0.5c-0.3-0.1-0.7-0.1-1.1-0.1
		c-0.4,0-1.1,0.2-2,0.4c-1.3,0.3-2.3,0.6-2.9,0.6c-0.7,0-1.3,0-1.8-0.2c-0.5-0.2-1-0.5-1.4-1c-0.7-0.8-1-1.7-0.9-2.8
		c0.1-1.1,0.6-2,1.4-2.8c0.3-0.3,0.7-0.5,1-0.7c0.3-0.1,0.7-0.3,1.1-0.4c0.5-0.1,0.8-0.3,0.9-0.4c0.1-0.1,0.2-0.2,0.2-0.4
		c0-0.1-0.1-0.4-0.3-0.7L67.1,240.9z"/>
	<path class="st0" d="M80.6,231.6l2,3l-0.3,0.2c-0.6-0.6-1.1-0.9-1.6-1.1c-0.4-0.2-0.9-0.2-1.3-0.1c-0.3,0-0.7,0.2-1.2,0.6l-0.8,0.6
		l5.7,8.4c0.4,0.6,0.6,0.9,0.8,1c0.1,0.1,0.4,0.1,0.6,0.1c0.2,0,0.5-0.1,0.8-0.3l0.4-0.2l0.2,0.3l-5.7,3.9l-0.2-0.3l0.4-0.2
		c0.3-0.2,0.5-0.4,0.7-0.7c0.1-0.2,0.1-0.4,0.1-0.6c0-0.2-0.2-0.5-0.6-1.1l-5.7-8.4l-0.8,0.5c-0.7,0.5-1.2,1-1.3,1.5
		c-0.2,0.8,0,1.6,0.4,2.5l-0.3,0.2l-2-2.9L80.6,231.6z"/>
	<path class="st0" d="M95.3,238.4l0.2,0.3l-6.1,3.2l-0.2-0.3l0.4-0.2c0.3-0.2,0.6-0.4,0.7-0.6c0.1-0.1,0.2-0.3,0.1-0.6
		c0-0.2-0.2-0.6-0.5-1.1l-4-7.7c-0.3-0.6-0.5-1-0.7-1.1c-0.1-0.1-0.3-0.2-0.6-0.2c-0.2,0-0.5,0.1-0.9,0.2l-0.4,0.2l-0.2-0.3l6.1-3.2
		l0.2,0.3l-0.4,0.2c-0.3,0.2-0.6,0.4-0.7,0.6c-0.1,0.2-0.1,0.3-0.1,0.6c0,0.2,0.2,0.5,0.5,1.1l4,7.7c0.3,0.6,0.5,1,0.7,1.1
		c0.1,0.1,0.3,0.2,0.6,0.2c0.3,0,0.5-0.1,0.9-0.2L95.3,238.4z"/>
	<path class="st0" d="M103.3,221.4l1.3,3.3l-0.3,0.1c-0.5-0.7-0.9-1.2-1.3-1.4c-0.4-0.2-0.8-0.4-1.3-0.4c-0.3,0-0.7,0.1-1.3,0.3
		l-0.9,0.4l3.6,9.5c0.2,0.6,0.4,1,0.6,1.1c0.1,0.1,0.3,0.2,0.6,0.3c0.2,0,0.5,0,0.9-0.1l0.4-0.2l0.1,0.3l-6.5,2.4l-0.1-0.3l0.4-0.1
		c0.4-0.1,0.6-0.3,0.8-0.5c0.1-0.1,0.2-0.3,0.2-0.6c0-0.2-0.1-0.6-0.3-1.2l-3.6-9.5l-0.9,0.3c-0.8,0.3-1.4,0.7-1.6,1.2
		c-0.3,0.7-0.4,1.5-0.2,2.5l-0.3,0.1l-1.3-3.3L103.3,221.4z"/>
	<path class="st0" d="M106.5,220.4l6.7-1.4l0.1,0.3l-0.3,0.1c-0.5,0.1-0.8,0.2-1,0.4c-0.2,0.1-0.3,0.3-0.3,0.5c0,0.2,0,0.7,0.2,1.4
		l1.3,6.3c0.2,1.1,0.5,1.9,0.8,2.2c0.2,0.3,0.6,0.6,1,0.7c0.5,0.2,1,0.2,1.6,0c0.7-0.1,1.3-0.4,1.7-0.9c0.4-0.4,0.7-0.9,0.8-1.5
		c0.1-0.6,0-1.6-0.2-3l-1.1-5.3c-0.1-0.6-0.3-1-0.4-1.2c-0.2-0.2-0.4-0.4-0.6-0.4c-0.3-0.1-0.7-0.1-1.3,0l-0.1-0.3l4.5-1l0.1,0.3
		l-0.3,0.1c-0.4,0.1-0.6,0.2-0.9,0.4s-0.3,0.5-0.4,0.8c0,0.2,0,0.6,0.1,1.1l1,4.9c0.3,1.5,0.5,2.6,0.4,3.3c-0.1,0.7-0.4,1.4-1.1,2.2
		c-0.6,0.7-1.6,1.2-3,1.5c-1.1,0.2-2,0.3-2.7,0.1c-0.9-0.2-1.6-0.6-2.1-1.2c-0.5-0.6-0.8-1.4-1.1-2.4l-1.3-6.3
		c-0.2-0.7-0.3-1.2-0.4-1.4c-0.1-0.2-0.3-0.3-0.5-0.3c-0.2-0.1-0.6,0-1.1,0.1L106.5,220.4z"/>
	<path class="st0" d="M135,216.5l0.2,3.6l-0.3,0c-0.3-0.8-0.5-1.4-0.8-1.7c-0.3-0.3-0.6-0.6-1.1-0.8c-0.3-0.1-0.7-0.1-1.3-0.1l-1,0
		l0.6,10.1c0,0.7,0.1,1.1,0.2,1.3c0.1,0.2,0.2,0.3,0.5,0.4c0.2,0.1,0.5,0.2,0.9,0.1l0.4,0l0,0.4l-6.9,0.4l0-0.4l0.4,0
		c0.4,0,0.7-0.1,0.9-0.3c0.2-0.1,0.3-0.3,0.4-0.5c0.1-0.2,0.1-0.6,0-1.2l-0.6-10.2l-0.9,0.1c-0.9,0-1.5,0.3-1.9,0.7
		c-0.5,0.6-0.8,1.3-0.9,2.3l-0.4,0l-0.2-3.6L135,216.5z"/>
	<path class="st0" d="M143.1,217.7l-0.4,5.3l0.3,0c0.8,0.1,1.5-0.2,1.9-0.6c0.4-0.5,0.7-1.2,0.9-2.3l0.4,0l-0.6,6.9l-0.4,0
		c0-0.8-0.1-1.4-0.3-1.9c-0.2-0.5-0.5-0.8-0.8-1c-0.3-0.2-0.8-0.3-1.4-0.4l-0.3,3.7c-0.1,0.7-0.1,1.2,0,1.3c0,0.2,0.1,0.3,0.3,0.4
		c0.2,0.1,0.4,0.2,0.8,0.2l0.8,0.1c1.2,0.1,2.2-0.1,3-0.6c0.8-0.5,1.4-1.3,1.8-2.5l0.4,0l-0.9,4.1l-11.4-0.9l0-0.4l0.4,0
		c0.4,0,0.7,0,0.9-0.1c0.2-0.1,0.3-0.2,0.4-0.4c0.1-0.1,0.1-0.6,0.2-1.2l0.7-8.6c0-0.6,0.1-1,0-1.1c0-0.2-0.2-0.4-0.3-0.6
		c-0.2-0.2-0.6-0.3-1-0.4l-0.4,0l0-0.4l11,0.9l-0.3,3.9l-0.4,0c-0.1-1-0.3-1.7-0.6-2.1c-0.3-0.4-0.8-0.8-1.4-1c-0.4-0.1-1-0.3-2-0.3
		L143.1,217.7z"/>
	<path class="st0" d="M167,222c-1.1-0.4-2.2,0-3.2,1c-0.8,0.8-1.5,2.1-2,3.9c-0.7,2.1-0.8,3.9-0.4,5.1c0.3,0.9,0.9,1.5,1.9,1.8
		c0.6,0.2,1.2,0.2,1.7,0c0.7-0.2,1.3-0.7,1.9-1.5c0.6-0.8,1.1-1.9,1.5-3.3c0.5-1.7,0.8-3,0.7-3.9c0-0.9-0.3-1.6-0.6-2.1
		C168.1,222.5,167.6,222.2,167,222 M167.1,221.3c2,0.6,3.5,1.6,4.3,3.3c0.9,1.6,1,3.4,0.4,5.3c-0.5,1.6-1.4,2.9-2.7,3.8
		c-1.7,1.2-3.7,1.5-6,0.8c-2.3-0.7-3.8-2-4.5-3.9c-0.6-1.5-0.6-3.1-0.1-4.8c0.6-1.9,1.7-3.2,3.4-4.1
		C163.5,220.8,165.2,220.7,167.1,221.3"/>
	<path class="st0" d="M181.1,227.9l-2.4,4.9l0.3,0.2c0.5,0.3,1,0.4,1.4,0.4c0.4,0,0.8-0.1,1.2-0.4c0.4-0.3,0.8-0.7,1.2-1.3l0.3,0.1
		l-2.9,6l-0.3-0.2c0.4-1.2,0.5-2.1,0.2-2.7c-0.3-0.6-0.8-1-1.4-1.4l-0.3-0.2l-1.8,3.6c-0.3,0.6-0.4,1-0.5,1.2c0,0.2,0.1,0.4,0.2,0.6
		c0.1,0.2,0.4,0.4,0.7,0.6l0.4,0.2l-0.2,0.3l-6.2-3l0.2-0.3l0.4,0.2c0.3,0.2,0.6,0.2,0.9,0.2c0.2,0,0.4-0.1,0.6-0.2
		c0.1-0.1,0.3-0.5,0.6-1l3.8-7.8c0.3-0.6,0.5-1,0.5-1.2c0-0.2-0.1-0.4-0.2-0.6c-0.1-0.2-0.4-0.4-0.7-0.6l-0.4-0.2l0.2-0.3l10,4.9
		l-1.7,3.4l-0.4-0.2c0.3-0.8,0.4-1.5,0.2-2.1c-0.1-0.5-0.5-1-1.1-1.5c-0.3-0.3-0.9-0.6-1.9-1.1L181.1,227.9z"/>
	<path class="st0" d="M203.7,241.4l-2.1,2.9l-0.3-0.2c0.3-0.8,0.5-1.4,0.5-1.8c0-0.4-0.1-0.9-0.3-1.3c-0.1-0.2-0.4-0.5-0.9-0.9
		l-0.8-0.6l-6.1,8.1c-0.4,0.5-0.6,0.9-0.7,1.1c0,0.2,0,0.4,0.1,0.6c0.1,0.2,0.3,0.5,0.6,0.7l0.4,0.3l-0.2,0.3l-5.5-4.1l0.2-0.3
		l0.3,0.3c0.3,0.2,0.6,0.4,0.9,0.4c0.2,0,0.4,0,0.6-0.1c0.1-0.1,0.4-0.4,0.8-0.9l6.1-8.1l-0.8-0.6c-0.7-0.5-1.3-0.8-1.9-0.7
		c-0.8,0.1-1.5,0.5-2.2,1.1l-0.3-0.2l2.1-2.9L203.7,241.4z"/>
	<path class="st0" d="M209.2,247.6l-3.8,3.8l0.2,0.2c0.6,0.6,1.2,0.8,1.8,0.7c0.6-0.1,1.4-0.5,2.2-1.1l0.3,0.3l-4.9,4.9l-0.3-0.3
		c0.5-0.6,0.8-1.1,1-1.6c0.2-0.5,0.2-1,0.1-1.3c-0.1-0.3-0.4-0.8-0.8-1.2l-2.6,2.6c-0.5,0.5-0.8,0.9-0.9,1c-0.1,0.2-0.1,0.3,0,0.5
		c0,0.2,0.2,0.4,0.5,0.7l0.6,0.6c0.9,0.9,1.8,1.4,2.7,1.5c0.9,0.1,1.9-0.1,3-0.7l0.2,0.2l-3.4,2.5l-8-8.1l0.3-0.2l0.3,0.3
		c0.3,0.3,0.5,0.4,0.8,0.5c0.2,0,0.4,0,0.6,0c0.2-0.1,0.5-0.3,1-0.8l6.1-6.1c0.4-0.4,0.7-0.7,0.7-0.8c0.1-0.2,0.2-0.4,0.1-0.6
		c0-0.3-0.2-0.6-0.5-0.9l-0.3-0.3l0.3-0.2l7.8,7.8l-2.8,2.8l-0.3-0.3c0.5-0.8,0.8-1.5,0.9-2c0.1-0.5-0.1-1.1-0.4-1.7
		c-0.2-0.3-0.6-0.9-1.3-1.6L209.2,247.6z"/>
	<path class="st0" d="M224.9,264.9l-3.7,2.7l-0.2-0.3c0.8-0.9,1.2-1.9,1.3-2.9c0.1-1-0.2-1.9-0.8-2.7c-0.5-0.7-1.1-1.1-1.9-1.4
		c-0.8-0.3-1.6-0.3-2.4-0.1c-1,0.2-2,0.7-3,1.4c-1,0.7-1.7,1.5-2.3,2.3c-0.6,0.8-0.9,1.6-0.9,2.4c0,0.8,0.3,1.6,0.9,2.4
		c0.5,0.7,1.1,1.2,1.8,1.5c0.7,0.3,1.6,0.6,2.8,0.7l-0.9,0.7c-1.1-0.1-2-0.4-2.7-0.9c-0.8-0.4-1.5-1.1-2.1-2
		c-0.8-1.1-1.3-2.3-1.5-3.5c-0.2-1.2,0-2.4,0.5-3.5c0.5-1.1,1.2-2,2.2-2.7c1-0.7,2.2-1.2,3.5-1.3c1.3-0.1,2.5,0.1,3.7,0.6
		c1.2,0.5,2.1,1.3,2.9,2.3c0.5,0.7,1,1.7,1.2,2.7c0.2,0.6,0.3,1,0.4,1.1c0.1,0.2,0.3,0.3,0.5,0.3c0.2,0,0.5,0,0.8-0.2L224.9,264.9z"
		/>
	<path class="st0" d="M222.9,275.9l-3.6,1.9c-0.6,0.3-1,0.5-1.1,0.7s-0.2,0.3-0.2,0.6c0,0.2,0.1,0.5,0.2,0.9l0.2,0.4l-0.3,0.2
		l-3.1-6.1l0.3-0.2l0.2,0.4c0.2,0.3,0.4,0.6,0.6,0.7c0.1,0.1,0.3,0.1,0.6,0.1c0.2,0,0.6-0.2,1.1-0.5l7.7-3.9c0.6-0.3,1-0.5,1.1-0.7
		c0.1-0.1,0.2-0.3,0.2-0.6c0-0.2-0.1-0.5-0.2-0.9l-0.2-0.4l0.3-0.2l3.1,6.1l-0.3,0.2l-0.2-0.4c-0.2-0.3-0.4-0.6-0.6-0.7
		c-0.2-0.1-0.4-0.2-0.6-0.1c-0.2,0-0.6,0.1-1.1,0.5l-3.3,1.7l2.1,4.1l3.3-1.7c0.6-0.3,1-0.5,1.1-0.7c0.1-0.1,0.2-0.3,0.2-0.6
		c0-0.3-0.1-0.5-0.2-0.9l-0.2-0.4l0.3-0.2l3.1,6.1l-0.3,0.2l-0.2-0.4c-0.2-0.3-0.4-0.6-0.6-0.7c-0.2-0.1-0.4-0.2-0.6-0.1
		c-0.2,0-0.6,0.2-1.1,0.5l-7.7,3.9c-0.6,0.3-1,0.5-1.1,0.7c-0.1,0.1-0.2,0.3-0.2,0.6c0,0.3,0.1,0.5,0.2,0.9l0.2,0.4l-0.3,0.2
		l-3.1-6.1l0.3-0.2l0.2,0.4c0.2,0.3,0.4,0.6,0.6,0.7c0.2,0.1,0.4,0.2,0.6,0.1c0.2,0,0.6-0.1,1.1-0.5l3.6-1.9L222.9,275.9z"/>
	<path class="st0" d="M235.9,288.8l-5.8,8.7l5.4-1.7c0.8-0.2,1.2-0.5,1.4-0.8c0.3-0.4,0.3-1,0-1.7l0.3-0.1l1.3,4.1l-0.3,0.1
		c-0.2-0.5-0.4-0.8-0.6-1s-0.4-0.2-0.7-0.3c-0.3,0-0.7,0-1.3,0.2l-10.5,3.3l-0.1-0.3l7.8-11.8l-8,2.5c-0.7,0.2-1.2,0.6-1.3,1
		c-0.1,0.4-0.2,0.8,0,1.2l0.1,0.3l-0.3,0.1l-1.4-4.5l0.3-0.1c0.2,0.7,0.5,1.1,0.9,1.3c0.4,0.2,0.9,0.2,1.5,0l8.9-2.8l0.2-0.4
		c0.3-0.4,0.4-0.7,0.4-0.9c0-0.2,0-0.5-0.1-0.9l0.3-0.1L235.9,288.8z"/>
	<path class="st0" d="M240,307.9c-0.2-1.2-0.9-2-2.2-2.4c-1.1-0.4-2.5-0.4-4.4-0.1c-2.2,0.3-3.8,1-4.7,1.9c-0.7,0.7-0.9,1.5-0.8,2.4
		c0.1,0.7,0.3,1.2,0.7,1.6c0.5,0.5,1.2,0.8,2.1,1c1,0.2,2.1,0.2,3.6,0c1.7-0.3,3-0.6,3.8-1c0.8-0.4,1.3-0.9,1.6-1.5
		C240,309.1,240.1,308.5,240,307.9 M240.6,307.7c0.4,2.1,0,3.8-1.1,5.3c-1.1,1.5-2.6,2.4-4.5,2.6c-1.6,0.2-3.2,0-4.6-0.8
		c-1.8-1-2.9-2.7-3.3-5c-0.3-2.3,0.2-4.2,1.6-5.8c1.1-1.2,2.5-1.9,4.2-2.2c1.9-0.3,3.6,0.1,5.1,1.3
		C239.6,304.3,240.4,305.8,240.6,307.7"/>
	<path class="st0" d="M232.9,330.2l-4.6-0.6l0.2-11.7l0.4,0l0,0.4c0,0.4,0.1,0.7,0.2,0.9c0.1,0.2,0.2,0.3,0.5,0.4
		c0.1,0.1,0.6,0.1,1.2,0.1l8.7,0.1c0.7,0,1.1,0,1.3-0.1c0.2-0.1,0.3-0.2,0.5-0.4c0.1-0.2,0.2-0.5,0.2-0.9v-0.4h0.4l-0.1,7l-0.4,0
		l0-0.6c0-0.4-0.1-0.7-0.2-0.9c-0.1-0.2-0.2-0.3-0.5-0.4c-0.2-0.1-0.6-0.1-1.2-0.1l-8.4-0.1c-0.7,0-1.1,0-1.3,0.1
		c-0.2,0.1-0.3,0.2-0.4,0.5c-0.1,0.2-0.1,0.6-0.1,1.2l0,1.1c0,0.7,0.1,1.3,0.3,1.8c0.2,0.5,0.6,0.9,1.1,1.2c0.5,0.3,1.3,0.7,2.3,1
		V330.2z"/>
	<path class="st0" d="M239.6,340.9c0.2-1.2-0.2-2.2-1.4-3c-0.9-0.7-2.3-1.2-4.2-1.5c-2.2-0.4-3.9-0.3-5.1,0.3
		c-0.8,0.4-1.3,1.1-1.5,2.1c-0.1,0.7,0,1.2,0.2,1.7c0.3,0.6,0.9,1.2,1.7,1.6c0.8,0.5,2,0.8,3.4,1.1c1.7,0.3,3,0.3,3.9,0.2
		c0.9-0.2,1.6-0.5,2-0.9C239.2,342.1,239.5,341.6,239.6,340.9 M240.2,340.9c-0.3,2.1-1.2,3.7-2.7,4.7c-1.5,1.1-3.2,1.4-5.1,1.1
		c-1.7-0.3-3-1-4.1-2.2c-1.4-1.6-2-3.5-1.6-5.8c0.4-2.3,1.5-4,3.3-5c1.4-0.8,3-1,4.7-0.8c1.9,0.3,3.4,1.3,4.5,2.8
		C240.3,337.3,240.6,339,240.2,340.9"/>
	<path class="st0" d="M233.8,364.1l-4.4-1.5l0.1-0.3c1.3,0,2.5-0.3,3.4-0.9c0.9-0.6,1.5-1.4,1.9-2.4c0.3-0.9,0.3-1.8,0-2.6
		c-0.3-0.8-0.9-1.5-1.7-2.1c-0.9-0.6-1.8-1-2.7-1.4c-1.2-0.4-2.3-0.6-3.3-0.7c-1,0-1.8,0.2-2.5,0.7c-0.6,0.5-1.1,1.1-1.4,2
		c-0.1,0.3-0.2,0.6-0.2,1c0,0.3-0.1,0.7-0.1,1.1l2.6,0.9c0.5,0.2,0.8,0.2,1,0.2c0.2,0,0.3-0.1,0.5-0.3c0.2-0.2,0.3-0.4,0.4-0.7
		l0.1-0.3l0.3,0.1l-2.1,6l-0.3-0.1c0.1-0.5,0.2-0.8,0.1-1c0-0.2-0.1-0.4-0.3-0.6c-0.1-0.1-0.4-0.2-0.8-0.4l-2.6-0.9
		c-0.1-0.9,0-1.8,0.1-2.8c0.1-0.9,0.3-1.8,0.7-2.8c0.4-1.2,0.9-2.1,1.5-2.8c0.6-0.7,1.3-1.2,2-1.6c0.7-0.4,1.5-0.7,2.3-0.8
		c1-0.1,2,0,3.1,0.4c1.9,0.7,3.2,1.9,4,3.6c0.8,1.8,0.9,3.7,0.2,5.7c-0.2,0.6-0.5,1.1-0.7,1.6c-0.1,0.3-0.4,0.6-0.9,1.2
		c-0.4,0.5-0.7,0.8-0.7,1c0,0.2,0,0.4,0,0.5c0.1,0.2,0.3,0.4,0.6,0.6L233.8,364.1z"/>
	<path class="st0" d="M225.2,380.2l-0.3-0.2c0.2-0.4,0.2-0.8,0.1-1c-0.1-0.4-0.5-1.2-1.2-2.4l-2.8-4.8l-2.8-1.5
		c-0.6-0.3-1-0.5-1.2-0.5c-0.2,0-0.4,0-0.6,0.2c-0.2,0.1-0.4,0.3-0.6,0.6l-0.4,0.7l-0.3-0.2l3.5-6.5l0.3,0.2l-0.3,0.6
		c-0.2,0.3-0.3,0.6-0.3,0.9c0,0.2,0.1,0.4,0.2,0.6c0.1,0.1,0.4,0.4,1,0.7l2.3,1.3h6.4c1.3,0,2.1-0.1,2.3-0.2
		c0.3-0.1,0.6-0.4,0.8-0.7l0.3,0.2l-3,5.5l-0.3-0.2l0.1-0.2c0.2-0.3,0.3-0.6,0.2-0.8c0-0.2-0.1-0.3-0.2-0.4
		c-0.2-0.1-0.8-0.2-1.9-0.2h-5l2.3,4c0.6,1,1,1.6,1.3,1.7c0.1,0.1,0.3,0.1,0.5,0c0.2-0.1,0.5-0.4,0.8-0.9l0.3,0.2L225.2,380.2z"/>
	<path class="st0" d="M129.6,251.4v0.5c-0.7,0.1-1.3,0.5-1.8,1.1c-0.4,0.5-1,1.6-1.7,3.3l-6.5,14.4h-0.5l-6.4-14.9
		c-0.8-1.8-1.3-2.9-1.6-3.2c-0.3-0.3-0.8-0.5-1.5-0.6v-0.5h9v0.5h-0.3c-0.8,0-1.4,0.1-1.7,0.3c-0.2,0.1-0.3,0.3-0.3,0.6
		c0,0.2,0,0.4,0.1,0.6c0.1,0.2,0.3,0.8,0.8,1.8l4,9.4l3.7-8.3c0.4-1,0.7-1.7,0.8-2c0.1-0.3,0.2-0.6,0.2-0.9c0-0.3-0.1-0.5-0.2-0.7
		c-0.1-0.2-0.4-0.4-0.6-0.5c-0.4-0.2-0.9-0.2-1.6-0.2v-0.5H129.6z"/>
	<path class="st0" d="M141.7,269.7v0.5h-9.8v-0.5h0.6c0.5,0,1-0.1,1.3-0.3c0.2-0.1,0.4-0.4,0.6-0.7c0.1-0.2,0.2-0.8,0.2-1.8v-12.4
		c0-1,0-1.6-0.2-1.8c-0.1-0.2-0.3-0.5-0.6-0.6c-0.3-0.2-0.7-0.3-1.3-0.3h-0.6v-0.5h9.8v0.5H141c-0.5,0-1,0.1-1.3,0.3
		c-0.2,0.1-0.4,0.3-0.6,0.7c-0.1,0.2-0.2,0.8-0.2,1.7V267c0,1,0,1.6,0.2,1.8c0.1,0.2,0.3,0.4,0.6,0.6c0.3,0.2,0.7,0.3,1.3,0.3H141.7
		z"/>
	<path class="st0" d="M161.6,251.4v5.1h-0.5c-0.3-1.2-0.6-2-1-2.5c-0.4-0.5-0.9-0.9-1.5-1.2c-0.3-0.2-1-0.2-1.8-0.2h-1.4V267
		c0,1,0,1.6,0.2,1.8c0.1,0.2,0.3,0.4,0.6,0.6c0.3,0.2,0.7,0.3,1.3,0.3h0.6v0.5h-9.8v-0.5h0.6c0.5,0,1-0.1,1.3-0.3
		c0.2-0.1,0.4-0.3,0.6-0.7c0.1-0.2,0.1-0.8,0.1-1.7v-14.5h-1.4c-1.3,0-2.2,0.3-2.8,0.8c-0.8,0.8-1.3,1.8-1.5,3.2h-0.5v-5.1H161.6z"
		/>
</g>
<path class="st0" d="M96.9,313l0.6-2.4l1.7,0.2l-0.5,2.4L96.9,313z M95.4,308.1l0.3,1l-0.2,0.8l-0.4,0.6l-0.3,0.6l-0.1,1.3l-0.3,0.4
	l6.8,1.1l0.4-4.5l-6-1.3H95.4z"/>
<path class="st0" d="M96.1,316.4l0.6-2.4l1.7,0.2l-0.5,2.5L96.1,316.4z M94.3,313.8l-0.1,0.3v0.5l0,0.6l-0.4,0.3l-0.3,0.9l7.5,1.3
	l0.1-3.1l-6.7-1.3L94.3,313.8z"/>
<g>
	<path class="st0" d="M96.8,320.6l-1.8-0.3l0.6-2.4l1.7,0.2L96.8,320.6z M93.4,316.7l-0.4,0.4c0,0-0.3,0.5-0.2,0.5
		c0.1,0,0.3,0.5,0.3,0.5l-0.3,0.4v0.4l-0.3,0.2l0.2,0.3l-0.2,0.3v0.2l8.5,1.9v-3.6L93.4,316.7z"/>
</g>
<path class="st0" d="M94.2,323.9l0.6-2.4l1.7,0.2l-0.5,2.4L94.2,323.9z M92,320.7l-0.4,0.4l0.1,0.3l0.2,0.2l-0.3,0.4l-0.1,0.7
	l-0.2,0.7l9.6,2.2v-3.3l-8.7-1.9L92,320.7z"/>
<g>
	<path class="st0" d="M95.2,328.7l-1.8-0.3L94,326l1.7,0.2L95.2,328.7z M91.1,324h-0.3l0.1,0.5l-0.4,0.5l-0.3,0.5l-0.1,0.5
		c0,0-0.3,0.3-0.5,0.4c-0.1,0.1,0.4,1,0.4,1l-0.4,0.6l11.3,2.5v-4.1L91.1,324z"/>
</g>
<path class="st0" d="M92.3,332.9l0.6-2.4l1.7,0.2l-0.5,2.4L92.3,332.9z M88.7,329.2l-0.2,0.8l-0.8,0.3l-0.1,1.2l-0.3,0.9l13.6,3.2
	v-4.1l-11.5-2.7L88.7,329.2z"/>
<g>
	<path class="st0" d="M108.6,312.6l-0.2-2.4l1.8-0.1l0.2,2.3L108.6,312.6z M115.6,310.9l0.1-0.3l0.4-0.4l0.2-0.5l-0.5-0.5l-0.2-0.3
		l-12.8,0.6l-0.2,4.3l13.6-1.6c0,0-0.3-0.5-0.3-0.6C115.8,311.5,115.6,310.9,115.6,310.9"/>
</g>
<path class="st0" d="M109,313.7l1.8-0.1l0.2,2.3l-1.9,0.2L109,313.7z M102.5,314.4l-0.2,3.1l15-2.2l-0.2-0.3v-0.6l-0.6-0.3v-0.5
	v-0.4l-0.3-0.4L102.5,314.4z"/>
<path class="st0" d="M109.5,317.4l1.8-0.1l0.2,2.3l-1.9,0.2L109.5,317.4z M102.4,318.3v3.6l16.4-3.2l-0.2-0.1l-0.2-0.6l-0.4-0.3
	v-0.5l-0.2-0.5l0.2-0.4l-0.3-0.4L102.4,318.3z"/>
<path class="st0" d="M110,321.3l1.9-0.1l0.2,2.4l-1.9,0.2L110,321.3z M102.4,322.6v3.2l17.3-3.2l0.1-0.4V322l-0.2-0.3l-0.4-0.7
	l-0.3-0.4l-0.1-0.5l0.1-0.3l-0.3-0.6L102.4,322.6z"/>
<path class="st0" d="M110.6,325.5l1.8-0.1l0.2,2.4l-1.9,0.2L110.6,325.5z M102.4,326.5v4.2l18.8-3.3l0.1-0.4l-0.5-0.8l-0.7-0.5
	L120,325l0.1-0.4l-0.2-0.4v-0.7l-0.1-0.3L102.4,326.5z"/>
<path class="st0" d="M111.6,330.6l1.8-0.1l0.2,2.4l-1.9,0.2L111.6,330.6z M102.4,331.5v4.4l20.3-3.7l0.4-0.9l-0.3-1.9l-0.6-0.2
	l-0.8-1.1L102.4,331.5z"/>
<g>
	<path class="st0" d="M213.9,329.4c-0.5,0.4-1.6,0.8-1.6,0.8l-1-0.2c0,0-0.9-0.3-1.1-0.1c-0.2,0.2-1.6,0.6-1.8,0.6
		c-0.1,0-0.4-0.3-0.4-0.6c0-0.2,0-0.9-0.4-0.9c-0.3,0-0.9,0.2-0.9-0.1c0-0.3-0.2-0.7-0.2-0.7l-1.2,0.2c0,0-0.4-0.1-0.6-0.5
		c-0.2-0.4-0.7-1.4-0.7-1.4l-0.7,0l-1.1-0.1c0,0-0.6-0.3-0.8-0.3c-0.3,0-0.9-0.4-1.2,0.4c-0.3,0.8-0.5,1.6-0.8,1.6
		c-0.2,0-0.6,0-0.8,0.2c-0.2,0.2-0.5,0.1-0.8,0.3c-0.3,0.2-1.2,0.2-1.3,0.4c-0.2,0.2-2,0.9-2.1,1c-0.2,0-1.6,0.5-1.9,0.5
		c-0.3,0-2.5,0.2-2.9-0.4c-0.4-0.6-0.5-0.7-0.9-0.7c-0.4,0-0.1-0.3-0.6-0.3h-0.9c0,0-1.3-1.2-1.4-1.5c-0.1-0.3-0.1-0.5-0.5-0.6
		c-0.3-0.2-1.1-0.4-1.1-0.4s-0.9-0.5-1.3-0.3c-0.4,0.2-1.1,0.2-1.1,0.4c0,0.2-0.7,0.8-0.7,0.8s-0.6,0.2-0.7,0.2
		c-0.1,0.1-0.9,0.5-1.3,0.5c-0.4,0-0.6,0.6-0.6,0.6s-0.9,0.8-1.3,1c-0.5,0.2,0,0.3-0.8,0.3c-0.7-0.1-1.6-0.5-1.6-0.5
		s-0.2-0.3-0.4-0.2c-0.3,0.1-1-0.3-1-0.3l-0.9-0.3l-0.9-0.7l-0.7-0.1l-1.1-0.1c0,0-1.5-0.5-1.6-0.6c-0.1-0.1-1.3-0.9-1.4-1.4
		c0-0.5-0.4-0.6-0.5-0.8c-0.2-0.2,0-0.7,0.8-0.6l2.2,0.4c0,0,2.9,0.6,3.4,0.5c0.5-0.1,1.2,0.1,1.4,0.2c0.2,0.2,0.3,1.4,0.6,1.5
		c0.4,0.1,0.7,0.4,0.9,0.4s1.2-0.8,1.5-1c0.3-0.3,2.4-2.1,2.5-2.5c0.1-0.4,0.9-1,1.4-1c0.6,0,1.6-0.7,2.8-0.7c1.2,0,1,0,1.5,0
		c0.6,0,1.3-0.3,1.3-0.3s0.8,0.9,1.1,1c0.4,0,0.8,0.4,1,0.6c0.2,0.2,1.3,1,1.6,1.4c0.3,0.4,1.4,0.6,1.4,0.6s0.8-0.3,1.1,0
		c0.3,0.3,1.1,0.9,1.4,0.9c0.4,0,0.7,0,1.2,0c0.5,0,1.4-0.9,1.6-1c0.2-0.1,0.7-0.2,0.7-0.2s0.7,0.1,0.9,0c0.2,0,0.7-0.5,0.9-0.5
		c0.2,0,0.8,0,1-0.2c0.2-0.2,0.4-0.8,0.4-0.8l0.8-0.5l1.8-0.3l2.6,0.7l1.2,1.4l2.1,0.8c0,0,1.6,0.2,2,0.2s2.4,1.1,2.6,1
		c0.2-0.1-0.2,0.9,0,1.1C214.6,328.1,214.4,329,213.9,329.4 M222.4,316.7c0,0-4-1.4-4.9-1.1c-0.9,0.3-1.7,0.6-1.6,0.8
		c0,0-1.5,0-1.4,0.8c0,0.8,0.3,0.8,0.5,1.5c0.1,0.7-1,1-0.8,1.3c0.1,0.3,1.1,0.7,1,1.2c0,0.5-0.5,1.5-1.6,1
		c-1.1-0.5-0.7,0.7-1.2,0.5c-0.5-0.2-1.5-0.1-1.1-0.7l-1.6,0c0,0-0.6-1.6-1-1.6c-0.4,0-0.3-0.4-0.8-0.5c-0.5-0.2-0.9-0.4-1.1-0.4h-1
		c0,0-0.2,0.3-0.6,0c-0.4-0.3-0.6-0.2-0.8-0.5c-0.1-0.3-0.8-0.8-0.8-0.8l-0.5,0.1c0,0-0.7,0.4-0.9,1c-0.2,0.5-0.7,0.6-0.7,0.5
		c0-0.1-0.5-0.2-0.5-0.5c0-0.3-0.5-0.8-0.5-0.8s-0.5,0-0.6,0c-0.1,0-1,0.2-1,0.2s-0.2,0.6-0.3,0.5c-0.1-0.1-1,0.5-1,0.5
		s0,0.2-0.2,0.3c-0.2,0.1-0.9,0.7-0.9,0.7l-0.5,0.7l-0.7-0.2l-0.7,0.5c0,0-0.4,0.2-0.5,0.3c-0.2,0.1-0.6-0.2-0.6-0.2
		s-0.6-0.5-0.5-0.6c0.1-0.1,0.1-0.8,0-0.9c-0.1-0.1-0.9-0.7-0.9-0.7l-1.4-0.3c0,0-0.9,0-0.9-0.2c0-0.3-1-0.8-1-0.8l-0.5-0.1
		c0,0-0.6-0.1-0.7,0c-0.1,0.1-0.8,0.5-0.8,0.5l-0.6,0.4l-0.8-0.4l-0.9-0.6h-0.8l-1.4,0.5l-0.7,0.5c0,0-0.8,0.1-1,0
		c-0.1-0.1-1.1,0-1.1,0l-1.1,0.5l-0.3,0.6l-0.6,0.3l-0.8,0.2l-0.3,0.5v0.3l-0.5,0.7l-1,0.3l-1.6-0.7c0,0-3.1-0.3-4-0.2
		c-0.9,0.1-3.8,0.5-4.4,0.2c-0.6-0.2-2.6-0.2-3-0.1c-0.4,0.1-1.8,1-1.9,1c-0.1,0-1.9,0.4-2.1-1.1v5l-0.3,0.3L157,327l-20,0.3
		l-0.4-0.6l0.2-1.3l-0.2-1v-1.1v-0.6H136l-0.3,0.3l-1,0.3l-0.5-0.2l-1.8,0l-0.7-0.3l-0.7-1.1l-0.7-0.6l0.3-0.7l0.4-0.1
		c0,0,0.3-0.4,0.3-0.5c0-0.1,0.1-0.2-0.1-0.5c-0.2-0.3-0.6-0.4-0.7-0.6c-0.1-0.2-0.2-0.4-0.5-0.6c-0.3-0.1-0.8-0.7-1-0.6
		c-0.1,0.1-0.5-0.4-0.7,0c-0.2,0.4-0.2,0.5-0.3,0.7c-0.1,0.2,0.2,0.5,0,0.5c-0.2,0-0.1-0.1-0.6,0.2c-0.5,0.3-0.5,0-0.7,0.3
		c-0.2,0.3-0.3,0.5-0.3,0.5s0,0.4-0.2,0.5c-0.2,0.1-0.9,0.4-0.8,0.4c0.1,0,0.4,0.4,0.4,0.4l-0.1,0.6c0,0-0.7,0.1-0.8,0.2
		c-0.1,0.1-0.5,0.6-0.5,0.6l-0.2,0.5c0,0-0.1,0-0.2,0.2c0,0.2-0.3,0.5-0.3,0.5s-1,0.5-1.1,0.7c-0.1,0.1,0,0.7,0,0.7
		s-0.2,0.8-0.3,0.8c-0.1,0,0,0.4,0,0.5c0,0.1,0.5,0.8,0.5,0.8s0.2,0.5,0.2,0.7c0,0.2-0.6,1.1-0.6,1.1s0.3,0.5,0.7,0.3
		c0.4-0.2,2.4-0.5,2.4-0.5s1,0.6,1.1,0.5c0.2-0.1,1.3-0.4,1.4-0.3c0.1,0.1,1.3,0.2,1.6,0.3c0.3,0.1,0.9,0,0.9,0s0.4,0,0.9,0
		c0.5,0.1,5.5-0.2,5.5-0.2l7.5-0.3l5.9,0l6.4-0.2l3.3-0.2l1.6,0.2c0,0,0.7,0.1,1,0.2c0.3,0.1,0.5,1.5,0.5,1.9c0,0.5,0,0.6,0.1,1
		c0.1,0.5,0.7,0.7,1.1,0.7h1.7h48.1c0,0,0.4-0.3,0.6,0.2c0.2,0.5,0.4,0.4,0.4,0.7c0.1,0.3,0,0.7,0,1.1c0,0.4-0.1,0.8-0.1,1.1
		c0,0.4,0.3,1.7,0.3,1.7c0,0.1,0.5,0.3,0.8,0.5c0.4,0.1,1,0.1,1.7,0.2c0.6,0.1,1.4,0.2,1.4,0.2h1c0.2,0,0.8-0.2,0.8-0.2s1.4-6,1.5-7
		C223.1,330,223.7,320.2,222.4,316.7"/>
	<path class="st0" d="M47.9,322.3c0,0,1.7,1.6,2,1.5c0.3-0.1,1.2-0.7,1.3-0.8c0.2-0.1-0.1-1.1,0.8-1c0.9,0.1,1.3,0.6,1.3,0.6
		c0,0-0.1,0.2,0.4,0.2c0.5,0,1.2-0.2,1.2-0.2h0.6l0.2,0.3l0.5-0.1l1,0.4c0,0,0.1,0.3,0.4,0.3s0,0.1,0.3,0c0.2-0.1,0.4-0.6,0.6-0.6
		l0.2,0l0.5,0l0.6,0.3l0.7,0.2l0.4,0l0.5,0.8l-0.3,0.4c0,0-0.1,0.8-0.1,0.8c0.6,0,1-0.8,1-0.8s0-0.4,0.3-0.4c0.3,0,0.3-0.2,0.7,0
		c0.4,0.2,0.5,0.2,0.7,0.3c0.3,0,0.9,0,0.9,0s0.2-0.2,0.7,0c0.5,0.2,1.8,1,1.8,1l1.7,0.6c0,0,0.1,0,0.4,0.4c0.2,0.4,0.4,0.4,0.4,0.4
		l0.4,0.4c0,0,0.1-0.6,0.3-0.4c0.2,0.2,0.3,0.2,0.7,0.4c0.4,0.2,0.5,0.1,0.7,0.2c0.2,0.1,0.5,0.3,0.5,0.3s0.3,0.1,0.3,0.3v0.6
		c0,0-0.2,0.2,0,0.4c0.3,0.3,0.6,0.3,0.8,0.4c0.2,0.1,0.6,0,0.6,0s1.2-0.2,1.5-0.3c0.3-0.1,0.6-0.1,0.7-0.5c0.2-0.4,0-0.4,0.3-0.6
		c0.3-0.2,0.2-0.3,0.5-0.5c0.3-0.1,1.5-0.4,1.5-0.4c0,0,0.7,0.4,0.7,0.4h0.8c0.3,0-0.3,0.2,0.3,0c0.6-0.1,1.1-0.4,1.1-0.4h0.7
		c0,0,0.2,0.1,0.3,0c0.2-0.1,0.3,0.1,0.5,0c0.2-0.1-0.2-0.1,0.2-0.1c0.4,0,0.5-0.2,0.6-0.3c0.2,0,0.6-0.2,0.7-0.3l0.1,0l0.4-0.2
		l0.3,0.2l0.5,0.3c0,0,0.1,0.1,0.6,0c0.5,0,0.8,0,0.8,0h0.9l1,0.5c0,0-0.1,0.2,0,0.5c0,0.2,0,0.4,0,0.4l0.5,0.6l0.5,0.5
		c0,0-0.2,1.4-0.3,1.4c-0.1,0-0.7,1-0.7,1l-1,0.7l-0.8,0.5l14.6,4l21.4-4.2l-0.3-1l0.3-1l-0.2-0.3c0,0,0.4,0,0.2-0.3
		c-0.1-0.3-0.3-0.4,0-0.6c0.3-0.2,0.6-0.4,0.6-0.4l1.7,0l-0.3,0.8c0,0,0.1,0.6,0.1,1v0.8c0,0.3-0.1,1.5-0.1,1.5s-0.6,0.4-0.9,0.5
		c-0.3,0.1-0.7,0-0.8,0.2c-0.2,0.1-0.3,0.1-0.7,0.1c-0.4,0-1,0.2-1.2,0.3c-0.2,0.1-0.5,0.1-0.5,0.1s-0.2-0.1-0.3,0.2
		c-0.1,0.4,0,0-0.1,0.4c0,0.4-0.2,0.2,0,0.6c0.1,0.4-0.2,0.7-0.2,0.8c0,0.2-0.1,0.8,0,0.8l0.1,0c0,0-0.2,0.4-0.1,0.5
		c0.1,0.1,0,0.8,0,0.8l0,0.1c0,0-0.1,0.2-0.4,0.3c-0.2,0.1-0.7,0.5-0.9,0.5c-0.2,0-0.2-0.1-0.5,0c-0.4,0.1-2.6,0-2.6,0
		s-1.2,0.2-1.4,0c-0.2-0.2-2.3-0.1-2.4-0.1c-0.2,0-3.2,0.2-3.2,0.2l-1.1-0.4c0,0-1.5-0.1-1.8-0.1s-2.2,0-3.1,0s-2.3,0.2-2.3,0.2
		s0.1,0.1-0.3,0.3c-0.4,0.2-2-0.3-2.8,0c-0.7,0.3-2.1,0.4-2.6,0.4h-4.9h-5.1l-34.9,1.1c0,0-1.4-3.9-1.4-3.9c0,0,0.2-3,0.3-3.9
		c0-0.9-1.5-2.7-1.1-3.4c0.4-0.6,0.8-2.9,0.8-3.1c0-0.2-0.6-2.1-0.6-2.5C47.4,323.7,47.9,322.3,47.9,322.3"/>
	<path class="st0" d="M219.3,340.4c0,0.2-0.2,0.4-0.4,0.4h-3.3c-0.2,0-0.4-0.2-0.4-0.4v-1.3c0-0.2,0.2-0.4,0.4-0.4h3.3
		c0.2,0,0.4,0.2,0.4,0.4V340.4z M217.8,344.8c0,0.2-0.2,0.4-0.4,0.4h-4.8c-0.2,0-0.4-0.2-0.4-0.4v-1.7c0-0.2,0.2-0.4,0.4-0.4
		l5.4-0.1c0.2,0,0.4,0.2,0.4,0.4L217.8,344.8z M215.1,355c0,0.2-0.2,0.4-0.4,0.4h-3.2c-0.2,0-0.4-0.2-0.4-0.4v-2.1
		c0-0.2,0.2-0.4,0.4-0.4l3.5-0.2c0.2,0,0.4,0.2,0.4,0.4L215.1,355z M212.8,359c0,0.2-0.2,0.4-0.4,0.4h-5.1c-0.2,0-0.4-0.2-0.4-0.4
		v-1.9c0-0.2,0.2-0.4,0.4-0.4h5.1c0.2,0,0.4,0.2,0.4,0.4V359z M211.8,362.9c0,0.2-0.2,0.4-0.4,0.4h-4.1c-0.2,0-0.4-0.2-0.4-0.4v-2.3
		c0-0.2,0.2-0.4,0.4-0.4h4.9c0.2,0,0.4,0.2,0.4,0.4L211.8,362.9z M209,367.4c0,0.2-0.2,0.4-0.4,0.4l-1.7,0c-0.2,0-0.4-0.2-0.4-0.4
		v-2c0-0.2,0.2-0.4,0.4-0.4h3c0.2,0,0.4,0.2,0.4,0.4L209,367.4z M206.2,359c0,0.2-0.2,0.4-0.4,0.4h-5.1c-0.2,0-0.4-0.2-0.4-0.4v-1.9
		c0-0.2,0.2-0.4,0.4-0.4h5.1c0.2,0,0.4,0.2,0.4,0.4V359z M206.2,362.9c0,0.2-0.2,0.4-0.4,0.4h-8.1c-0.2,0-0.4-0.2-0.4-0.4v-2.3
		c0-0.2,0.2-0.4,0.4-0.4h8.1c0.2,0,0.4,0.2,0.4,0.4V362.9z M201.9,367.6v-2c0-0.2,0.2-0.4,0.4-0.4h3c0.2,0,0.4,0.2,0.4,0.4v2
		c0,0.2-0.2,0.4-0.4,0.4h-3C202.1,367.9,201.9,367.8,201.9,367.6 M205.2,371.4c0,0.2-0.2,0.4-0.4,0.4h-5.4c-0.2,0-0.4-0.2-0.4-0.4
		v-1.9c0-0.2,0.2-0.4,0.4-0.4l6.2,0c0.2,0,0.4,0.2,0.4,0.4L205.2,371.4z M198.2,371.4c0,0.2-0.2,0.4-0.4,0.4h-5.5
		c-0.2,0-0.4-0.2-0.4-0.4v-1.9c0-0.2,0.2-0.4,0.4-0.4h5.5c0.2,0,0.4,0.2,0.4,0.4V371.4z M191.3,371.6c0,0.2-0.2,0.4-0.4,0.4h-5.4
		c-0.2,0-0.4-0.2-0.4-0.4v-1.9c0-0.2,0.2-0.4,0.4-0.4h5.4c0.2,0,0.4,0.2,0.4,0.4V371.6z M184.6,371.4c0,0.2-0.2,0.4-0.4,0.4h-6.7
		c-0.2,0-0.4-0.2-0.4-0.4v-1.9c0-0.2,0.2-0.4,0.4-0.4h6.7c0.2,0,0.4,0.2,0.4,0.4V371.4z M176.3,371.4c0,0.2-0.2,0.4-0.4,0.4h-6.7
		c-0.2,0-0.4-0.2-0.4-0.4l-0.2-1.9c0-0.2,0.2-0.4,0.4-0.4h6.8c0.2,0,0.4,0.2,0.4,0.4V371.4z M168.3,365.8c0-0.2,0.1-0.4,0.3-0.4
		l4.8-0.2c0.2,0,0.3,0.2,0.3,0.4v2.3c0,0.2-0.1,0.4-0.3,0.4h-4.5c-0.2,0-0.3-0.2-0.3-0.4L168.3,365.8z M167.9,363.1l-0.4-2.1
		c0-0.2,0.2-0.4,0.4-0.4l5.7-0.2c0.2,0,0.4,0.2,0.4,0.4v2.3c0,0.2-0.2,0.4-0.4,0.4h-5.4C168.1,363.4,167.9,363.3,167.9,363.1
		 M166.5,373.9c-0.3,0.1-0.7,0.6-1.1,0.7c-0.4,0.1-1.4,0.8-1.9,0.8c-0.4,0-0.2-0.4-0.2-0.5c-0.1-0.1-0.2-0.8-0.3-1.1
		c-0.1-0.2-0.1-1.4-0.1-1.7c0,0,0.4-0.3,0.7-0.7s0.5-0.3,0.7-0.4c0.2-0.1,1.1-0.1,1.6-0.2c0.5-0.1,0.8-0.6,0.9-0.6
		c0.1,0,0.5,0.2,0.6,0.4c0.1,0.2,0,0.7,0,1.4c0,0.6,0.2,1.2,0.2,1.4C167.5,373.6,166.8,373.8,166.5,373.9 M162.4,374.7
		c-0.1,0.6-0.2,0.7-0.5,0.8c-0.3,0.1-0.4,0.4-1,0.4c-0.5,0-0.4,0-1.2,0c-0.8,0-1.3,0.3-1.6,0.4c-0.3,0.1-2.1,0.1-2.4,0
		c-0.3-0.1-0.6,0-0.8-0.2c-0.2-0.2,0-0.4-0.2-0.9c-0.1-0.5-0.2-1.2-0.3-1.5c-0.4-0.9,0.3-0.7,0.7-1c0.4-0.3,0.6-0.1,1.1-0.1
		c0.6-0.1,0.5-0.1,0.9-0.2c0.4-0.1,1.1-0.2,1.4-0.3c0.4-0.1,1.4-0.3,1.8-0.5c0.4-0.2,0.9-0.2,1.1-0.3c0.2,0,0.7,0.4,0.7,0.9
		s0.2,0.6,0.2,1C162.3,373.7,162.4,374.1,162.4,374.7 M153.2,370.1c-0.2-0.3,0-1.2,0-1.2l0.3-0.2c0,0,1.9-0.3,2.1-0.5
		s1.9-0.7,1.9-0.7h1.3h1l0.4,0.7c0,0,0.1,1.3,0,1.6c-0.1,0.3,0.1,0.3,0,0.7c-0.1,0.4-0.1,0-0.2,0c-0.1,0-0.2,0.1-0.6,0.1
		c-0.5,0-0.5,0.1-0.8,0.2c-0.3,0.1-1,0-1.2,0c-0.2,0-1,0.3-1.3,0.4c-0.4,0.2-1.4,0.2-1.7,0.2s-0.4-0.1-0.8-0.3
		C153.2,370.9,153.4,370.4,153.2,370.1 M152.9,375.5c0,0.4-0.1,0.5-0.3,1c-0.2,0.5-0.1,0.2-0.3,0.2c-0.2,0-0.9,0.3-1,0.3
		c-0.2,0-0.5,0-1,0c-0.5-0.1-2,0.3-2.2,0.3s-1.1,0.1-1.7,0.1c-0.6,0-0.6,0.1-0.8,0c-0.2-0.1-0.5-0.4-0.6-0.5
		c-0.1-0.1,0.1-0.5,0.1-0.7c0-0.2-0.2-0.8-0.2-1c0,0,0-0.4,0.2-0.8c0.2-0.4,0.8,0.1,1.3-0.3c0.5-0.4,0.8,0,1.4,0s0.7,0,1.4-0.1
		c0.7-0.2,1.2-0.2,1.9-0.4c0.6-0.2,1.1,0,1.4,0c0.3,0,0.4,0.2,0.4,0.2s0,0.7,0.2,1C153.1,374.8,152.9,375.1,152.9,375.5
		 M144.7,370.6c-0.1-0.3,0.1-0.7,0.1-0.7l0.5-0.1c0,0,0.1-0.2,0.1-0.2c0,0,0.7-0.2,0.9-0.3c0.2-0.1,1.5-0.1,1.6-0.1
		c0.1,0,1.3-0.3,1.4-0.5c0.1-0.2,1.6,0,1.6,0l0.9,0.1c0,0,0.1,0.6,0.1,1c0,0.3,0.2,1.2,0.2,1.3c0,0.1-0.4,0.5-0.5,0.5
		c-0.1,0-0.3,0.3-0.3,0.3s-1.3,0.1-1.6,0.1c-0.2,0-0.2,0.2-0.3,0.2c-0.1,0-0.5,0-1,0.1c-0.6,0.1-0.6,0-2.1,0c-1.5-0.1-0.7,0.1-1.3,0
		c-0.5-0.1-0.1-0.2-0.2-0.3c0-0.1,0-0.6-0.1-0.8C144.7,371,144.8,370.9,144.7,370.6 M143.6,369.9c0,0.1,0,0.4,0,0.9
		c0,0.6-0.1,0.5-0.1,0.6c0,0.1-0.1,0.5-0.2,0.7c-0.1,0.2-0.1,0.2-0.5,0.3c-0.4,0.1-0.6,0-1,0.1c-0.4,0.1-0.4,0.1-0.6,0.1
		c-0.2,0-0.9,0-1.3-0.1c-0.4-0.1-0.7,0-1.3,0c-0.6-0.1-0.5,0.1-0.7,0c-0.1-0.1-0.5,0-0.7-0.1c-0.2-0.2-0.2-0.3-0.4-0.6
		c-0.2-0.3,0-0.3-0.2-0.6c-0.1-0.3,0-1,0-1l0.8-0.2c0,0,0.5-0.1,0.7-0.2c0.2-0.1,0.5,0,0.8-0.1c0.3-0.1,0.8,0,1,0
		c0.2,0,1.9-0.1,2.4-0.1C142.8,369.6,143.3,369.8,143.6,369.9C143.9,370,143.6,369.9,143.6,369.9 M143,374.9c-0.1,0.2-0.2,0.5,0,1.3
		c0.1,0.8-0.5,1-0.9,0.9c-0.4-0.1-0.9,0.3-1.2,0.3c-0.3-0.1-1.2,0.1-1.3,0.1c-0.1,0-0.7-0.5-0.9-0.6c-0.1-0.1-0.4-0.6-0.4-0.7
		c-0.1-0.1,0-0.9,0-0.9s-0.2-0.7-0.2-0.9c0.1-0.2,0.9-0.1,0.9-0.1c0,0,0.6,0,0.9,0c0.3,0,0.6,0,1.1-0.1c0.5-0.1,0.6-0.2,0.9-0.1
		c0.3,0,0.6,0.1,0.8,0.1C143.1,374.3,143.1,374.7,143,374.9 M137.2,376.3c0.1,0.3,0,0.7,0,0.7s-0.4,0.3-0.6,0.4
		c-0.2,0.2-0.2,0-0.8,0c-0.7,0-0.9,0.1-1.3,0c-0.5-0.1-1.1-0.3-1.3-0.3c-0.2,0-0.2-0.4-0.3-0.5c-0.1-0.2-0.2-0.5-0.4-0.7
		c-0.2-0.2,0-1.2,0-1.2s0.2-0.1,0.5-0.3c0.3-0.2,0.2,0,0.5-0.1c0.3-0.1,0.9,0,1,0.1c0.1,0.1,0.9,0,1.1,0h1.4c0.1,0,0.2,0.3,0.2,0.3
		S137.2,376,137.2,376.3 M131.2,372.4c-0.5-0.1-0.5,0-0.6,0c-0.1,0-0.3-0.1-0.4-0.3c-0.2-0.2-0.3-1.3-0.3-1.3v-0.9l0.2,0
		c0,0,0.4,0,0.6-0.1c0.2-0.1,0.1,0,0.5,0c0.4,0,0.3,0,0.7,0.1c0.4,0,1.6,0,1.8,0c0.2,0,1.5-0.3,1.7-0.2c0.1,0.1,0.2,0.6,0.2,1
		s0,0.4,0,0.6c0,0.2-0.1,0.4-0.1,0.6c-0.1,0.2-0.1,0.4-0.1,0.5c0,0.1-0.5,0.2-0.6,0.2c-0.1-0.1-0.7,0.1-1,0c-0.4-0.1-1,0.1-1.4,0
		C131.9,372.4,131.7,372.4,131.2,372.4 M131.3,375.5c-0.1,0.4,0.1,0.8,0,1c-0.1,0.2-0.2,0.3-0.3,0.4c-0.1,0-0.5,0.2-1,0.1
		c-0.5-0.1-0.6,0.2-1,0c-0.3-0.2-0.6-0.1-1.1-0.3c-0.5-0.1-1-0.2-1.4-0.3c-0.4-0.1-0.4-0.1-0.8-0.2c-0.3-0.1-0.3-0.1-0.5-0.4
		c-0.2-0.2,0-0.3,0-0.4c0-0.1,0-0.4,0-0.4c0-0.1,0-0.8,0.1-0.9l0.9-0.1c0,0,0.3,0.1,0.7,0.3c0.4,0.2,0.7,0.2,1.1,0
		c0.5-0.2,0.4,0,0.6-0.2c0.1-0.1,1,0,1.4,0c0.4,0,0.2,0.1,0.3,0.1c0.1,0,0.5,0.2,0.9,0.2c0.4,0,0,0.4,0,0.5
		C131.3,375.2,131.4,375.2,131.3,375.5 M123,371.3c0,0-0.6-0.3-0.7-0.3c0-0.1,0.1-0.7,0.2-0.9c0.1-0.1,0-0.9,0-0.9s0.3-0.2,0.3-0.3
		c0-0.1,0.5,0,0.5,0h0.7c0.5,0,0.7,0,0.9,0.1c0.2,0.1,1.8-0.1,2.1,0c0.4,0.1,0.7,0,0.7,0s0.7,0.1,0.9,0.1c0.2,0,0.2,0.3,0.1,0.4
		c-0.1,0.1,0,0.8,0,0.9v0.7c0,0-0.2,0.5-0.2,0.5c-0.1,0.1-0.3,0.1-0.4,0.1c-0.1,0-1.1-0.1-1.3-0.1c-0.2,0-0.9,0-0.9,0l-1.7-0.3
		L123,371.3z M123.6,374.9c0,0-1,0.9-1.1,0.9c-0.2,0-0.9-0.2-1.1-0.2c-0.2,0-1.1-0.1-1.7-0.2c-0.5-0.1-0.8-0.2-1.1-0.3
		c-0.3,0-0.5,0-0.5-0.1c-0.1-0.1-0.4-0.3-0.5-0.8c-0.1-0.5,0.1-0.4,0.1-0.6c0-0.2,0.2-1,0.2-1.2l0.3-0.4c0,0,1.1,0.4,1.3,0.6
		c0.2,0.1,2.6,0.2,2.6,0.2s1,0.4,1,0.4c0.1,0.1,0.6,0.3,0.6,0.3C123.8,373.6,123.6,374.9,123.6,374.9 M116.6,369.7
		c-0.2-0.1-0.5,0.1-0.6,0c-0.1-0.1-0.4-0.6-0.3-0.7c0-0.1-0.1-0.8,0-0.9c0.1-0.2,0.3-0.9,0.3-0.9h0.8h0.6c0,0,0.2,0.1,0.2,0.2
		c0.1,0.1,0.5,0,1.1,0.1c0.6,0,1.1,0.1,1.2,0.1c0.1,0,1.1,0.2,1.2,0.3c0.1,0.1,0.1,1,0,1.2c-0.1,0.2-0.1,0.8-0.2,1
		c-0.1,0.2-0.2,0.2-0.8,0.1c-0.5,0-0.5,0.1-0.9,0c-0.4-0.1-0.3,0.1-0.5,0c-0.1-0.1-1.1-0.2-1.5-0.3
		C117,369.9,116.8,369.8,116.6,369.7 M116.5,372.7c0,0.2-0.1,0.5-0.3,0.9c-0.2,0.4-0.2,0.2-0.5,0.2c-0.3,0-0.6,0.1-1,0
		c-0.4-0.1-0.6,0-0.8,0c-0.2,0-1.1-0.2-1.3-0.2c-0.2,0-0.7,0-0.8,0c-0.1,0.1-0.5-0.2-0.7-0.3c-0.2-0.1-0.1-0.1-0.1-0.1
		s-0.3,0-0.4-0.2c-0.1-0.1,0.2-0.7,0.4-0.9c0.1-0.1,0-0.8,0-0.8s0.1-0.1,0.4-0.3c0.3-0.1,0.3,0,0.6,0.1s0.8,0.1,0.8,0.1
		s1.3,0.2,1.6,0.2c0.4,0,0.8,0.1,1,0.1c0.2,0,1,0.2,1.1,0.2C116.7,371.8,116.6,372.4,116.5,372.7 M110.1,352.7h-3.3
		c-0.2,0-0.4-0.2-0.4-0.4v-2.8c0-0.2,0.2-0.4,0.4-0.4l3.5-0.1c0.2,0,0.4,0.2,0.4,0.4l-0.2,2.9C110.5,352.6,110.3,352.7,110.1,352.7
		 M109.9,356.8c0,0.2-0.2,0.4-0.4,0.4h-4.7c-0.2,0-0.4-0.2-0.4-0.4v-2.3c0-0.2,0.2-0.4,0.4-0.4l5.1-0.1c0.2,0,0.4,0.2,0.4,0.4
		L109.9,356.8z M109.6,362.1c0,0.2-0.2,0.4-0.4,0.4l-6.5,0c-0.2,0-0.4-0.2-0.4-0.4v-1.8c0-0.2,0.2-0.4,0.4-0.4l7-0.1
		c0.2,0,0.4,0.2,0.4,0.4L109.6,362.1z M109.4,365.9c0,0.2-0.2,0.4-0.4,0.4h-3c-0.2,0-0.4-0.2-0.4-0.4v-2.1c0-0.2,0.2-0.4,0.4-0.4
		l3.1-0.1c0.2,0,0.4,0.2,0.4,0.4L109.4,365.9z M108.8,370.3c0,0.2-0.2,0.4-0.4,0.4h-5.5c-0.2,0-0.4-0.2-0.4-0.4v-1.8
		c0-0.2,0.2-0.4,0.4-0.4h5.8c0.2,0,0.4,0.2,0.4,0.4L108.8,370.3z M108.2,374.5c0,0.2-0.2,0.4-0.4,0.4h-7c-0.2,0-0.4-0.2-0.4-0.4
		v-1.8c0-0.2,0.2-0.4,0.4-0.4l7.3-0.2c0.2,0,0.4,0.2,0.4,0.4L108.2,374.5z M94.1,371.1c-0.2,0-0.4-0.2-0.4-0.4v-1.8
		c0-0.2,0.2-0.4,0.4-0.4h6.9c0.2,0,0.4,0.2,0.4,0.4v1.8c0,0.2-0.2,0.4-0.4,0.4H94.1z M99.3,374.7c0,0.2-0.2,0.4-0.4,0.4h-4
		c-0.2,0-0.4-0.2-0.4-0.4v-1.8c0-0.2,0.2-0.4,0.4-0.4h4c0.2,0,0.4,0.2,0.4,0.4V374.7z M92.8,371.1c0,0.2-0.2,0.4-0.4,0.4h-6.1
		c-0.2,0-0.4-0.2-0.4-0.4v-1.7c0-0.2,0.2-0.4,0.4-0.4h6.1c0.2,0,0.4,0.2,0.4,0.4V371.1z M92.8,375c0,0.2-0.2,0.4-0.4,0.4h-4
		c-0.2,0-0.4-0.2-0.4-0.4v-1.8c0-0.2,0.2-0.4,0.4-0.4h4c0.2,0,0.4,0.2,0.4,0.4V375z M87.5,375c0,0.2-0.2,0.4-0.4,0.4h-5.7
		c-0.2,0-0.4-0.2-0.4-0.4v-1.8c0-0.2,0.2-0.4,0.4-0.4h5.7c0.2,0,0.4,0.2,0.4,0.4V375z M80.1,375.3c0,0.2-0.2,0.4-0.4,0.4H74
		c-0.2,0-0.4-0.2-0.4-0.4v-1.8c0-0.2,0.2-0.4,0.4-0.4h5.7c0.2,0,0.4,0.2,0.4,0.4V375.3z M71.1,372.1c-0.2,0-0.4-0.2-0.4-0.4V370
		c0-0.2,0.2-0.4,0.4-0.4h6.3c0.2,0,0.4,0.2,0.4,0.4v1.8c0,0.2-0.2,0.4-0.4,0.4H71.1z M72.6,375.4c0,0.2-0.2,0.4-0.4,0.4h-5.7
		c-0.2,0-0.4-0.2-0.4-0.4v-1.8c0-0.2,0.2-0.4,0.4-0.4h5.7c0.2,0,0.4,0.2,0.4,0.4V375.4z M64.2,372.4c-0.2,0-0.4-0.2-0.4-0.4v-1.8
		c0-0.2,0.2-0.4,0.4-0.4H69c0.2,0,0.4,0.2,0.4,0.4v1.8c0,0.2-0.2,0.4-0.4,0.4H64.2z M60.6,367.2v-2.4c0-0.2,0.2-0.4,0.4-0.4h5
		c0.2,0,0.4,0.2,0.4,0.4v2.4c0,0.2-0.2,0.4-0.4,0.4h-5C60.8,367.6,60.6,367.4,60.6,367.2 M57.9,362.3l-0.5-1.5
		c0-0.2,0.2-0.4,0.4-0.4h3.4c0.2,0,0.4,0.2,0.4,0.4v1.5c0,0.2-0.2,0.4-0.4,0.4h-2.9C58.1,362.7,57.9,362.5,57.9,362.3 M56.3,358.9
		v-2c0-0.2,0.2-0.4,0.4-0.4h4c0.2,0,0.4,0.2,0.4,0.4v2c0,0.2-0.2,0.4-0.4,0.4h-4C56.5,359.3,56.3,359.1,56.3,358.9 M56,354.9h-1
		c-0.2,0-0.4-0.2-0.4-0.4l-0.7-3.2c0-0.2,0.2-0.4,0.4-0.4H56c0.2,0,0.4,0.2,0.4,0.4v3.2C56.4,354.7,56.2,354.9,56,354.9 M52.3,348.6
		v-1.8c0-0.2,0.2-0.4,0.4-0.4H59c0.2,0,0.4,0.2,0.4,0.4v1.8c0,0.2-0.2,0.4-0.4,0.4h-6.3C52.4,349,52.3,348.9,52.3,348.6 M51.6,344.5
		v-2.4c0-0.2,0.2-0.4,0.4-0.4h3.7c0.2,0,0.4,0.2,0.4,0.4v2.4c0,0.2-0.2,0.4-0.4,0.4H52C51.8,344.9,51.6,344.7,51.6,344.5 M57,342.3
		c0-0.2,0.2-0.4,0.4-0.4h5.4c0.2,0,0.4,0.2,0.4,0.4v1.9c0,0.2-0.2,0.4-0.4,0.4h-5.4c-0.2,0-0.4-0.2-0.4-0.4V342.3z M65.3,342.3
		c0-0.2,0.2-0.4,0.4-0.4h7.1c0.2,0,0.4,0.2,0.4,0.4v2.1c0,0.2-0.2,0.4-0.4,0.4h-7.1c-0.2,0-0.4-0.2-0.4-0.4V342.3z M75.4,341.7
		c0-0.2,0.2-0.4,0.4-0.4h4.9c0.2,0,0.4,0.2,0.4,0.4v2.1c0,0.2-0.2,0.4-0.4,0.4h-4.9c-0.2,0-0.4-0.2-0.4-0.4V341.7z M82.7,341.2
		c0-0.2,0.2-0.4,0.4-0.4h6c0.2,0,0.4,0.2,0.4,0.4v2.6c0,0.2-0.2,0.4-0.4,0.4h-6c-0.2,0-0.4-0.2-0.4-0.4V341.2z M94.1,345.2
		c0.2,0,0.4,0.2,0.4,0.4v2c0,0.2-0.2,0.4-0.4,0.4h-6.5c-0.2,0-0.4-0.2-0.4-0.4v-2c0-0.2,0.2-0.4,0.4-0.4H94.1z M91.2,341.2
		c0-0.2,0.2-0.4,0.4-0.4h7.1c0.2,0,0.4,0.2,0.4,0.4v1.8c0,0.2-0.2,0.4-0.4,0.4h-7.1c-0.2,0-0.4-0.2-0.4-0.4V341.2z M100.7,345.4v2
		c0,0.2-0.2,0.4-0.4,0.4h-4.7c-0.2,0-0.4-0.2-0.4-0.4v-2c0-0.2,0.2-0.4,0.4-0.4h4.7C100.5,345,100.7,345.2,100.7,345.4 M98.5,352.9
		c-0.2,0-0.4-0.2-0.4-0.4v-2.8c0-0.2,0.2-0.4,0.4-0.4h6.7c0.2,0,0.4,0.2,0.4,0.4v2.8c0,0.2-0.2,0.4-0.4,0.4H98.5z M96.9,357.9
		c-0.2,0-0.4-0.2-0.4-0.4v-2.3c0-0.2,0.2-0.4,0.4-0.4h5.2c0.2,0,0.4,0.2,0.4,0.4v2.3c0,0.2-0.2,0.4-0.4,0.4H96.9z M97.5,364.2
		c0-0.2,0.2-0.4,0.4-0.4h6.8c0.2,0,0.4,0.2,0.4,0.4v2.1c0,0.2-0.2,0.4-0.4,0.4h-6.8c-0.2,0-0.4-0.2-0.4-0.4V364.2z M93,362.6
		c-0.2,0-0.4-0.2-0.4-0.4v-1.8c0-0.2,0.2-0.4,0.4-0.4h7.7c0.2,0,0.4,0.2,0.4,0.4v1.8c0,0.2-0.2,0.4-0.4,0.4H93z M89.2,364.5
		c0-0.2,0.2-0.4,0.4-0.4h6.8c0.2,0,0.4,0.2,0.4,0.4v2.1c0,0.2-0.2,0.4-0.4,0.4h-6.8c-0.2,0-0.4-0.2-0.4-0.4V364.5z M85.1,363.2
		c-0.2,0-0.4-0.2-0.4-0.4v-2.3c0-0.2,0.2-0.4,0.4-0.4l6-0.1c0.2,0,0.4,0.2,0.4,0.4l-0.2,2.5c0,0.2-0.2,0.4-0.4,0.4H85.1z
		 M82.5,367.3c-0.2,0-0.4-0.2-0.4-0.4v-2.1c0-0.2,0.2-0.4,0.4-0.4h5.2c0.2,0,0.4,0.2,0.4,0.4v2.1c0,0.2-0.2,0.4-0.4,0.4H82.5z
		 M78.2,369.2c0-0.2,0.2-0.4,0.4-0.4h6.1c0.2,0,0.4,0.2,0.4,0.4v2.2c0,0.2-0.2,0.4-0.4,0.4h-6.1c-0.2,0-0.4-0.2-0.4-0.4V369.2z
		 M74.2,365c0-0.2,0.2-0.4,0.4-0.4h6.3c0.2,0,0.4,0.2,0.4,0.4v2.4c0,0.2-0.2,0.4-0.4,0.4h-6.3c-0.2,0-0.4-0.2-0.4-0.4V365z
		 M70,362.7c-0.2,0-0.4-0.2-0.4-0.4v-1.6c0-0.2,0.2-0.4,0.4-0.4h6.4c0.2,0,0.4,0.2,0.4,0.4v1.6c0,0.2-0.2,0.4-0.4,0.4H70z M67,365.4
		c0-0.2,0.2-0.4,0.4-0.4h5.8c0.2,0,0.4,0.2,0.4,0.4v2.4c0,0.2-0.2,0.4-0.4,0.4h-5.8c-0.2,0-0.4-0.2-0.4-0.4V365.4z M63,360.7
		c0-0.2,0.2-0.4,0.4-0.4h5.2c0.2,0,0.4,0.2,0.4,0.4v1.6c0,0.2-0.2,0.4-0.4,0.4h-5.2c-0.2,0-0.4-0.2-0.4-0.4V360.7z M62.6,356.3
		c0-0.2,0.2-0.4,0.4-0.4h7.5c0.2,0,0.4,0.2,0.4,0.4v2.6c0,0.2-0.2,0.4-0.4,0.4H63c-0.2,0-0.4-0.2-0.4-0.4V356.3z M64,350.4
		c0.2,0,0.4,0.2,0.4,0.4v3.7c0,0.2-0.2,0.4-0.4,0.4h-6c-0.2,0-0.4-0.2-0.4-0.4v-3.7c0-0.2,0.2-0.4,0.4-0.4H64z M69.3,347.9
		c0,0.2-0.2,0.4-0.4,0.4H61c-0.2,0-0.4-0.2-0.4-0.4v-1.5c0-0.2,0.2-0.4,0.4-0.4h7.9c0.2,0,0.4,0.2,0.4,0.4V347.9z M72.6,350.4
		c0.2,0,0.4,0.2,0.4,0.4v2.8c0,0.2-0.2,0.4-0.4,0.4h-6.4c-0.2,0-0.4-0.2-0.4-0.4v-2.8c0-0.2,0.2-0.4,0.4-0.4H72.6z M78.1,348.3
		c0,0.2-0.2,0.4-0.4,0.4H71c-0.2,0-0.4-0.2-0.4-0.4V346c0-0.2,0.2-0.4,0.4-0.4h6.7c0.2,0,0.4,0.2,0.4,0.4V348.3z M80.3,350.2
		c0.2,0,0.4,0.2,0.4,0.4v2.8c0,0.2-0.2,0.4-0.4,0.4h-6c-0.2,0-0.4-0.2-0.4-0.4v-2.8c0-0.2,0.2-0.4,0.4-0.4H80.3z M85.8,347.6
		c0,0.2-0.2,0.4-0.4,0.4h-5.6c-0.2,0-0.4-0.2-0.4-0.4v-1.7c0-0.2,0.2-0.4,0.4-0.4h5.6c0.2,0,0.4,0.2,0.4,0.4V347.6z M80.9,358.3
		c-0.2,0-0.4-0.2-0.4-0.4v-2.2c0-0.2,0.2-0.4,0.4-0.4h5.9c0.2,0,0.4,0.2,0.4,0.4v2.2c0,0.2-0.2,0.4-0.4,0.4H80.9z M72,358.9
		c-0.2,0-0.4-0.2-0.4-0.4v-2.6c0-0.2,0.2-0.4,0.4-0.4h7c0.2,0,0.4,0.2,0.4,0.4v2.6c0,0.2-0.2,0.4-0.4,0.4H72z M77.7,360.5
		c0-0.2,0.2-0.4,0.4-0.4h5.1c0.2,0,0.4,0.2,0.4,0.4v1.8c0,0.2-0.2,0.4-0.4,0.4H78c-0.2,0-0.4-0.2-0.4-0.4V360.5z M88.8,352.9
		c0,0.2-0.2,0.4-0.4,0.4h-5.6c-0.2,0-0.4-0.2-0.4-0.4v-2.3c0-0.2,0.2-0.4,0.4-0.4h5.6c0.2,0,0.4,0.2,0.4,0.4V352.9z M89.9,352.5
		v-2.8c0-0.2,0.2-0.4,0.4-0.4h5.4c0.2,0,0.4,0.2,0.4,0.4v2.8c0,0.2-0.2,0.4-0.4,0.4h-5.4C90.1,352.9,89.9,352.8,89.9,352.5
		 M94.1,354.9c0.2,0,0.4,0.2,0.4,0.4v2.6c0,0.2-0.2,0.4-0.4,0.4h-5.6c-0.2,0-0.4-0.2-0.4-0.4v-2.6c0-0.2,0.2-0.4,0.4-0.4H94.1z
		 M101.2,345.1c0-0.2,0.2-0.4,0.4-0.4h4.1c0.2,0,0.4,0.2,0.4,0.4v2c0,0.2-0.2,0.4-0.4,0.4h-4.1c-0.2,0-0.4-0.2-0.4-0.4V345.1z
		 M101.5,340c0-0.2,0.2-0.4,0.4-0.4h5.3c0.2,0,0.4,0.2,0.4,0.4v2.7c0,0.2-0.2,0.4-0.4,0.4h-5.3c-0.2,0-0.4-0.2-0.4-0.4V340z
		 M107.9,344.5h2.9c0.2,0,0.4,0.2,0.4,0.4v2.5c0,0.2-0.2,0.4-0.4,0.4h-2.9c-0.2,0-0.4-0.2-0.4-0.4v-2.5
		C107.5,344.7,107.6,344.5,107.9,344.5 M110,340.6c0-0.2,0.2-0.4,0.4-0.4h5.5c0.2,0,0.4,0.2,0.4,0.4v1.7c0,0.2-0.2,0.4-0.4,0.4h-5.5
		c-0.2,0-0.4-0.2-0.4-0.4V340.6z M118.4,340.8c0-0.2,0.2-0.4,0.4-0.4h5.9c0.2,0,0.4,0.2,0.4,0.4v1.1c0,0.2-0.2,0.4-0.4,0.4h-5.9
		c-0.2,0-0.4-0.2-0.4-0.4V340.8z M120.5,335.4c0-0.4,0.3-0.7,0.7-0.7h4.6c0.4,0,0.7,0.3,0.7,0.7v0.6c0,0.4-0.3,0.7-0.7,0.7h-4.6
		c-0.4,0-0.7-0.3-0.7-0.7V335.4z M125.4,330.8c0-0.4,0.3-0.7,0.7-0.7h4.6c0.4,0,0.7,0.3,0.7,0.7v0.6c0,0.4-0.3,0.7-0.7,0.7h-4.6
		c-0.4,0-0.7-0.3-0.7-0.7V330.8z M132.8,330.8c0-0.4,0.3-0.7,0.7-0.7h4.6c0.4,0,0.7,0.3,0.7,0.7v0.6c0,0.4-0.3,0.7-0.7,0.7h-4.6
		c-0.4,0-0.7-0.3-0.7-0.7V330.8z M140.8,330.3c0-0.4,0.3-0.7,0.7-0.7h4.6c0.4,0,0.7,0.3,0.7,0.7v1c0,0.4-0.3,0.7-0.7,0.7h-4.6
		c-0.4,0-0.7-0.3-0.7-0.7V330.3z M148.4,330.3c0-0.4,0.3-0.7,0.7-0.7h4.6c0.4,0,0.7,0.3,0.7,0.7v0.8c0,0.4-0.3,0.7-0.7,0.7h-4.6
		c-0.4,0-0.7-0.3-0.7-0.7V330.3z M156.9,334.4c0.2,0,0.4,0.2,0.4,0.4v1.3c0,0.2-0.2,0.4-0.4,0.4h-5.2c-0.2,0-0.4-0.2-0.4-0.4v-1.3
		c0-0.2,0.2-0.4,0.4-0.4H156.9z M156.2,330.2c0-0.4,0.3-0.7,0.7-0.7h4.6c0.4,0,0.7,0.3,0.7,0.7v0.8c0,0.4-0.3,0.7-0.7,0.7h-4.6
		c-0.4,0-0.7-0.3-0.7-0.7V330.2z M209.4,340.6c-0.2,0-0.4-0.2-0.4-0.4V338c0-0.2,0.2-0.4,0.4-0.4h4.8c0.2,0,0.4,0.2,0.4,0.4v2.2
		c0,0.2-0.2,0.4-0.4,0.4H209.4z M202.8,352.3c0-0.2,0.2-0.4,0.4-0.4h6c0.2,0,0.4,0.2,0.4,0.4v2.1c0,0.2-0.2,0.4-0.4,0.4h-6
		c-0.2,0-0.4-0.2-0.4-0.4V352.3z M198.4,349.6c-0.2,0-0.4-0.2-0.4-0.4v-2.8c0-0.2,0.2-0.4,0.4-0.4h4.5c0.2,0,0.4,0.2,0.4,0.4v2.8
		c0,0.2-0.2,0.4-0.4,0.4H198.4z M196.1,354.8c-0.2,0-0.4-0.2-0.4-0.4v-2.5c0-0.2,0.2-0.4,0.4-0.4h5.5c0.2,0,0.4,0.2,0.4,0.4v2.5
		c0,0.2-0.2,0.4-0.4,0.4H196.1z M193.8,359.3c-0.2,0-0.4-0.2-0.4-0.4v-2.5c0-0.2,0.2-0.4,0.4-0.4h5.1c0.2,0,0.4,0.2,0.4,0.4v2.5
		c0,0.2-0.2,0.4-0.4,0.4H193.8z M187.5,359.3c-0.2,0-0.4-0.2-0.4-0.4v-2.5c0-0.2,0.2-0.4,0.4-0.4h4.7c0.2,0,0.4,0.2,0.4,0.4v2.5
		c0,0.2-0.2,0.4-0.4,0.4H187.5z M179.9,359.3c-0.2,0-0.4-0.2-0.4-0.4v-2.8c0-0.2,0.2-0.4,0.4-0.4h6.3c0.2,0,0.4,0.2,0.4,0.4v2.8
		c0,0.2-0.2,0.4-0.4,0.4H179.9z M174.8,365.4c0-0.2,0.2-0.4,0.4-0.4h6.7c0.2,0,0.4,0.2,0.4,0.4v2.4c0,0.2-0.2,0.4-0.4,0.4h-6.7
		c-0.2,0-0.4-0.2-0.4-0.4V365.4z M181.2,360.3c0.2,0,0.4,0.2,0.4,0.4v2.4c0,0.2-0.2,0.4-0.4,0.4h-5.5c-0.2,0-0.4-0.2-0.4-0.4v-2.4
		c0-0.2,0.2-0.4,0.4-0.4H181.2z M171.8,356.1c0-0.2,0.2-0.4,0.4-0.4h6.1c0.2,0,0.4,0.2,0.4,0.4v2.4c0,0.2-0.2,0.4-0.4,0.4h-6.1
		c-0.2,0-0.4-0.2-0.4-0.4V356.1z M171.1,351.7c0-0.2,0.2-0.4,0.4-0.4h2.9c0.2,0,0.4,0.2,0.4,0.4v2.4c0,0.2-0.2,0.4-0.4,0.4h-2.9
		c-0.2,0-0.4-0.2-0.4-0.4V351.7z M177.1,339.7c0,0.2-0.2,0.4-0.4,0.4H172c-0.2,0-0.4-0.2-0.4-0.4v-1.9c0-0.2,0.2-0.4,0.4-0.4h4.7
		c0.2,0,0.4,0.2,0.4,0.4V339.7z M180.2,341c0.2,0,0.4,0.2,0.4,0.4v3.1c0,0.2-0.2,0.4-0.4,0.4h-5.5c-0.2,0-0.4-0.2-0.4-0.4v-3.1
		c0-0.2,0.2-0.4,0.4-0.4H180.2z M185.1,339.7c0,0.2-0.2,0.4-0.4,0.4h-5.4c-0.2,0-0.4-0.2-0.4-0.4v-1.9c0-0.2,0.2-0.4,0.4-0.4h5.4
		c0.2,0,0.4,0.2,0.4,0.4V339.7z M187.8,341.9c0.2,0,0.4,0.2,0.4,0.4v2.1c0,0.2-0.2,0.4-0.4,0.4h-5.5c-0.2,0-0.4-0.2-0.4-0.4v-2.1
		c0-0.2,0.2-0.4,0.4-0.4H187.8z M192.8,340.3c0,0.2-0.2,0.4-0.4,0.4H187c-0.2,0-0.4-0.2-0.4-0.4v-2.7c0-0.2,0.2-0.4,0.4-0.4h5.4
		c0.2,0,0.4,0.2,0.4,0.4V340.3z M195.1,341.7c0.2,0,0.4,0.2,0.4,0.4v2.1c0,0.2-0.2,0.4-0.4,0.4h-5.1c-0.2,0-0.4-0.2-0.4-0.4v-2.1
		c0-0.2,0.2-0.4,0.4-0.4H195.1z M198.6,340.2c0,0.2-0.2,0.4-0.4,0.4h-3.8c-0.2,0-0.4-0.2-0.4-0.4v-2.5c0-0.2,0.2-0.4,0.4-0.4h3.8
		c0.2,0,0.4,0.2,0.4,0.4V340.2z M192.2,349.7c-0.2,0-0.4-0.2-0.4-0.4v-2.8c0-0.2,0.2-0.4,0.4-0.4h4.5c0.2,0,0.4,0.2,0.4,0.4v2.8
		c0,0.2-0.2,0.4-0.4,0.4H192.2z M189,351.5c0-0.2,0.2-0.4,0.4-0.4h4.4c0.2,0,0.4,0.2,0.4,0.4v2.5c0,0.2-0.2,0.4-0.4,0.4h-4.4
		c-0.2,0-0.4-0.2-0.4-0.4V351.5z M185.6,349.6c-0.2,0-0.4-0.2-0.4-0.4v-2.4c0-0.2,0.2-0.4,0.4-0.4h4.5c0.2,0,0.4,0.2,0.4,0.4v2.4
		c0,0.2-0.2,0.4-0.4,0.4H185.6z M182.7,351.9c0-0.2,0.2-0.4,0.4-0.4h4.4c0.2,0,0.4,0.2,0.4,0.4v2.5c0,0.2-0.2,0.4-0.4,0.4h-4.4
		c-0.2,0-0.4-0.2-0.4-0.4V351.9z M179.3,349.7c-0.2,0-0.4-0.2-0.4-0.4v-2.4c0-0.2,0.2-0.4,0.4-0.4h5c0.2,0,0.4,0.2,0.4,0.4v2.4
		c0,0.2-0.2,0.4-0.4,0.4H179.3z M172.2,349.6c-0.2,0-0.4-0.2-0.4-0.4v-2.4c0-0.2,0.2-0.4,0.4-0.4h5.5c0.2,0,0.4,0.2,0.4,0.4v2.4
		c0,0.2-0.2,0.4-0.4,0.4H172.2z M175.7,351.2c0-0.2,0.2-0.4,0.4-0.4h5.2c0.2,0,0.4,0.2,0.4,0.4v3.4c0,0.2-0.2,0.4-0.4,0.4h-5.2
		c-0.2,0-0.4-0.2-0.4-0.4V351.2z M202.3,341.5c0.2,0,0.4,0.2,0.4,0.4v2.3c0,0.2-0.2,0.4-0.4,0.4h-5.1c-0.2,0-0.4-0.2-0.4-0.4v-2.3
		c0-0.2,0.2-0.4,0.4-0.4H202.3z M204.5,346.1h4.5c0.2,0,0.4,0.2,0.4,0.4v2.8c0,0.2-0.2,0.4-0.4,0.4h-4.5c-0.2,0-0.4-0.2-0.4-0.4
		v-2.8C204.1,346.3,204.3,346.1,204.5,346.1 M201.1,340.8c-0.2,0-0.4-0.2-0.4-0.4v-2.5c0-0.2,0.2-0.4,0.4-0.4h6.4
		c0.2,0,0.4,0.2,0.4,0.4v2.5c0,0.2-0.2,0.4-0.4,0.4H201.1z M166.6,344.8c-0.2,0-0.4-0.2-0.4-0.4v-2.5c0-0.2,0.2-0.4,0.4-0.4h5.5
		c0.2,0,0.4,0.2,0.4,0.4v2.5c0,0.2-0.2,0.4-0.4,0.4H166.6z M167.6,355.8l2.4-0.2c0.2,0,0.3,0.2,0.3,0.4l0.2,2.6
		c0,0.2-0.2,0.3-0.4,0.3h-2.5c-0.2,0-0.3-0.2-0.3-0.3l-0.1-2.5C167.2,355.9,167.4,355.8,167.6,355.8 M166.9,354.7
		c-0.2,0-0.4-0.2-0.4-0.4l-0.1-2.7c0-0.2,0.2-0.4,0.4-0.4l2.7-0.2c0.2,0,0.4,0.2,0.4,0.4l0.2,2.9c0,0.2-0.2,0.4-0.4,0.4H166.9z
		 M160.6,368l0.1-0.6c0,0,0.5-0.5,0.7-0.6c0.1-0.1,1-0.1,1.1-0.1c0.1,0,0.8-0.2,0.9-0.3c0.1-0.1,0.9-0.2,1.3-0.4
		c0.5-0.2,1.5-0.3,1.6-0.3c0.1,0,0.3,0.6,0.3,0.6s0.4,1.4,0.4,1.6c0,0.2-0.1,0.7-0.2,0.8c-0.1,0-0.9,0.4-1,0.4
		c-0.2,0-1.2,0.4-1.3,0.4c-0.1,0-1.7,0.3-2.1,0.4c-0.4,0.1-1.1,0-1.3,0c-0.3,0-0.4-0.7-0.4-0.7V368z M155.4,363.7l1.7-0.1l2.4-0.3
		l2.2-0.5v3l-1.9,0.7l-2.1,0.4l-2.5-0.2L155,364L155.4,363.7z M153.8,361.7l-0.1-2.3h1.6l1.9-0.2l2.9-0.7l0.5,2.5l-1.9,0.8l-2.5,0.2
		L153.8,361.7z M147.6,365c0,0,5.5-0.9,6.3-1.1c0.8-0.2,0.4,3.2,0.4,3.2s-1.8,0.9-3.3,0.9c-1.5,0-3.4,0-3.4-0.2
		C147.5,367.5,147.6,365,147.6,365 M139.7,358.6v-3.3c3.3,0.1,5.9-0.7,5.9-0.7l0.3,3.7C143.8,359.4,139.7,358.6,139.7,358.6
		 M131.3,358.5V355c2.2,0.3,7.3,0,7.3,0l-0.1,3.4C136,359.4,131.3,358.5,131.3,358.5 M128.5,365.3l5.9-0.2l-0.2,3l-5.7-0.2V365.3z
		 M128.1,360.5h5.8v2.8h-5.8V360.5z M124.2,357.8l0.2-3.6l5.7,0.7l0.1,3.7L124.2,357.8z M122.9,364.4l0.8,0.3l1.7,0.1h1.7v2.5
		l-1,0.3H124l-1.4-0.5L122.9,364.4z M121.4,362.5l-0.1-3.3c0.2,0.4,5.6,0.5,5.6,0.5v3.1C124.8,363.4,121.4,362.5,121.4,362.5
		 M117.6,363.4l2.2,0.5l2.3,0.2l-0.4,2.5h-0.9l-1.9-0.1l-1.6-0.6L117.6,363.4z M115.6,361.1l0.3-2.9l4.1,0.5l-0.1,3.1h-1.7
		C118.1,361.8,115.6,361.1,115.6,361.1 M112.5,356.2l2.6,1.6l-0.3,2.8l-2.8-1.2L112.5,356.2z M116.3,352.4l-0.3,3.2l-3.7-0.9
		l0.7-3.4L116.3,352.4z M116,346.7v3l-3.1,0.4l0.3-4.2L116,346.7z M117.3,351.2l0.1-3.6l5,0.6v4L117.3,351.2z M117.6,352.7l5.4,1.2
		l-0.3,3.4l-5.5-1.5L117.6,352.7z M132,349.1v3.8l-8.1-0.6l0.4-3.8L132,349.1z M138.1,352.9h-4.4v-3.6h4.4V352.9z M144.7,349.1v3.5
		l-5,0.1v-3.4L144.7,349.1z M162.3,341c0,0.2-0.2,0.4-0.4,0.4h-3.8c-0.2,0-0.4-0.2-0.4-0.4v-1.6c0-0.2,0.2-0.4,0.4-0.4h3.8
		c0.2,0,0.4,0.2,0.4,0.4V341z M163.8,345.7l0.5,3.3c-0.1,0.9-2.1,0.8-2.1,0.8v-3.1L163.8,345.7z M163,362.4c0,0,0.8-0.2,0.9-0.2
		c0.1,0,1.1-0.7,1.1-0.7s0.6-0.1,0.6,0c0,0.1,0.1,1.5,0.1,1.5l0.1,1.2l-0.6,0.4c0,0-0.8,0.4-1,0.5c-0.1,0.1-1.1,0.2-1.1,0.2
		l-0.8-0.2l-0.1-2.5L163,362.4z M162.6,352.5c0.6,0,2-1.2,2-1.2l0.1,3.7c-0.4,0.6-2,0.9-2,0.9L162.6,352.5z M161.1,358.5l2.6-1
		l1.7-0.8l0.2,2.5c0,0-1.2,0.8-1.3,0.8c-0.1,0-1.9,0.6-1.9,0.6l-1.4,0.2l-0.3-2.1L161.1,358.5z M157.8,347.7l3.7-1v3.5l-3.5,0.8
		L157.8,347.7z M155.4,353.8c2.7,0,6.2-1.3,6.2-1.3l0.3,3.2c-1.8,1.1-6.5,1.3-6.5,1.3V353.8z M152.8,351.6v-3.4l3.8-0.7v3.5
		L152.8,351.6z M145.7,352l0.2-3.1l5.3-0.4v3.5H145.7z M153.3,361.9l-0.7,0.5l-1.4,0.2h-2.6l-0.3-2.3l2.3-0.2l2.4-0.6L153.3,361.9z
		 M147.1,358.2l-0.2-3.5c0.9,0.1,6.7-1.1,6.7-1.1l0.2,3.7C151.6,358.2,147.1,358.2,147.1,358.2 M166.5,346.4h3.4
		c0.2,0,0.4,0.2,0.4,0.4l-0.1,2.7c0,0.2-0.2,0.4-0.4,0.4h-3.2c-0.2,0-0.4-0.2-0.4-0.4l-0.1-2.7C166.1,346.5,166.2,346.4,166.5,346.4
		 M163.7,340.6c-0.2,0-0.4-0.2-0.4-0.4v-2.5c0-0.2,0.2-0.4,0.4-0.4h5.5c0.2,0,0.4,0.2,0.4,0.4v2.5c0,0.2-0.2,0.4-0.4,0.4H163.7z
		 M151,340.9V340c0-0.2,0.2-0.4,0.4-0.4h3.8c0.2,0,0.4,0.2,0.4,0.4v0.8c0,0.2-0.2,0.4-0.4,0.4h-3.8C151.2,341.3,151,341.1,151,340.9
		 M149.4,340.1v1.2c0,0.2-0.2,0.4-0.4,0.4h-5c-0.2,0-0.4-0.2-0.4-0.4v-1.2c0-0.2,0.2-0.4,0.4-0.4h5
		C149.3,339.7,149.4,339.9,149.4,340.1 M149.2,336.7H144c-0.2,0-0.4-0.2-0.4-0.4v-1.2c0-0.2,0.2-0.4,0.4-0.4h5.2
		c0.2,0,0.4,0.2,0.4,0.4v1.2C149.5,336.6,149.4,336.7,149.2,336.7 M136.1,336.3v-1.2c0-0.2,0.2-0.4,0.4-0.4h5.2
		c0.2,0,0.4,0.2,0.4,0.4v1.2c0,0.2-0.2,0.4-0.4,0.4h-5.2C136.3,336.7,136.1,336.6,136.1,336.3 M136.3,340h5c0.2,0,0.4,0.2,0.4,0.4
		v1.2c0,0.2-0.2,0.4-0.4,0.4h-5c-0.2,0-0.4-0.2-0.4-0.4v-1.2C135.9,340.2,136.1,340,136.3,340 M141.7,344.9
		c10.5-0.5,20.6-1.6,20.6-1.6s-5.3,3.8-17.2,4.2c-11.9,0.4-35.3-2-31-3.8C114.1,343.7,131.1,345.4,141.7,344.9 M128.2,336v-0.6
		c0-0.4,0.3-0.7,0.7-0.7h4.6c0.4,0,0.7,0.3,0.7,0.7v0.6c0,0.4-0.3,0.7-0.7,0.7H129C128.6,336.7,128.2,336.4,128.2,336 M132.8,340.3
		c0.2,0,0.4,0.2,0.4,0.4v1.6c0,0.2-0.2,0.4-0.4,0.4h-5.9c-0.2,0-0.4-0.2-0.4-0.4v-1.6c0-0.2,0.2-0.4,0.4-0.4H132.8z M114.4,367.9
		c0,0.1-0.2,0.6-0.2,0.8s0,0.2-0.2,0.3c-0.2,0.1-0.5,0.4-0.7,0.4c-0.2,0-0.6-0.1-0.6-0.1l-1.4-0.6c0,0-0.6-0.4-0.4-1.2
		c0.2-0.8,0.2-1.5,0.2-1.5l0.2-0.2l1,0.4c0,0,0.8,0.3,0.9,0.3c0.1,0,0.9,0.2,0.9,0.2l0.3,0.4C114.4,367.1,114.5,367.9,114.4,367.9
		 M113.5,365.2l-2.2-0.8l0.4-2.6l5.2,1.3c0,0,0.2,2.4,0,2.5c-0.2,0.1-1.5,0-1.5,0L113.5,365.2z M140.5,365.1l-0.2,3l-4.8-0.2v-2.6
		L140.5,365.1z M140.3,363.5l-0.3,0.1c0,0-1,0.2-1.1,0.2h-1.6l-1.9-0.8v-2.4l2.4,0.2l2.7-0.2L140.3,363.5z M146.8,364.9l-0.2,3.3
		l-4.6-0.1l0.1-3.2H146.8z M144.5,363.4l-3.2-0.2v-2.5l2.7-0.1l3.6-0.6l0.2,2.8L144.5,363.4z M188.8,365.4v2.4
		c0,0.2-0.2,0.4-0.4,0.4h-5c-0.2,0-0.4-0.2-0.4-0.4v-2.4c0-0.2,0.2-0.4,0.4-0.4h5C188.7,365.1,188.8,365.2,188.8,365.4 M188.4,363.2
		h-5.5c-0.2,0-0.4-0.2-0.4-0.4V361c0-0.2,0.2-0.4,0.4-0.4h5.5c0.2,0,0.4,0.2,0.4,0.4v1.9C188.8,363.1,188.7,363.2,188.4,363.2
		 M195.3,365.5v2c0,0.2-0.2,0.4-0.4,0.4H190c-0.2,0-0.4-0.2-0.4-0.4v-2c0-0.2,0.2-0.4,0.4-0.4h4.9
		C195.1,365.1,195.3,365.3,195.3,365.5 M201.1,365.1c0.2,0,0.4,0.2,0.4,0.4v2c0,0.2-0.2,0.4-0.4,0.4h-4.9c-0.2,0-0.4-0.2-0.4-0.4v-2
		c0-0.2,0.2-0.4,0.4-0.4H201.1z M196.3,363.1c0,0.2-0.2,0.4-0.4,0.4h-6.1c-0.2,0-0.4-0.2-0.4-0.4v-2.3c0-0.2,0.2-0.4,0.4-0.4h6.1
		c0.2,0,0.4,0.2,0.4,0.4V363.1z M214.6,346c0.2,0,0.4,0.2,0.4,0.4v3.5c0,0.2-0.2,0.4-0.4,0.4h-3.4c-0.2,0-0.4-0.2-0.4-0.4v-3.5
		c0-0.2,0.2-0.4,0.4-0.4H214.6z M211.3,344.2c0,0.2-0.2,0.4-0.4,0.4h-6.3c-0.2,0-0.4-0.2-0.4-0.4v-1.7c0-0.2,0.2-0.4,0.4-0.4h6.3
		c0.2,0,0.4,0.2,0.4,0.4V344.2z M214.5,333.5c0.2,0,0.4,0.2,0.4,0.4v2.2c0,0.2-0.2,0.4-0.4,0.4H160c-0.2,0-0.4-0.2-0.4-0.4v-2.2
		c0-0.2,0.2-0.4,0.4-0.4H214.5z M165.2,332.1l-0.9-2.6l-2.9-1.3l-5.6-0.3l-27.5,0.3l-3.3,0.4c0,0-1.8,1.3-1.7,1.9
		c0.1,0.6-1,2.3-1,2.3L121,334l-2.4,1.3c0,0,0.2,1.9-0.2,2c-0.4,0.2-3,0.8-3.5,0.9c-0.5,0.1-24.6,0.4-24.6,0.4l-41.9,1.5
		c0,0,5.8,23.6,17.5,37l5-0.5c0,0,2.6-0.2,2.6-0.2c0,0,3.5-0.1,3.5-0.1h5.4l9.8,0.1c0,0,7,0.1,7.4-0.2c0.4-0.3,1.1-0.2,2-0.4
		c0.9-0.3,2.7-0.4,2.7-0.4l3.1,0.2c0,0,2.6,1,2.9,0.6c0.3-0.4,0.3-1,1.1-1.1c0.8-0.1,2.7,1,3.1,1.2c0.5,0.2,4.8,1.8,13.1,2.9
		c8.3,1.1,13.4,1.1,17.3,0.8c3.9-0.2,12.7-1.1,14.8-1.1c2.2,0,5.6-0.3,6.5-0.7c0.9-0.4,2.8-1.1,3.3-1.3c0.6-0.2,1-0.4,1-0.7
		c0.1-0.3-0.7-0.8-0.6-1.1c0.1-0.4,0.5-1.1,1-1.3c0.5-0.3,1.2-1.1,2.2-1.3c1-0.3-0.3,0.1,1.9,0.2c2.1,0.1,3.5,0,4.5,0.2
		c1,0.2,16.2,0.2,16.2,0.2s4.8,0,5.9,0c1.1,0,3.3-0.2,4-0.1c0.6,0.1,1.2,0.1,1.8-0.2c0.6-0.3,14-21.2,15.5-37.5v-2.6L165.2,332.1z"
		/>
	<path class="st0" d="M157.1,322.5c0,0.2-0.1,0.3-0.3,0.3h-3.5c-0.2,0-0.3-0.1-0.3-0.3v-1.3c0-0.2,0.1-0.3,0.3-0.3h3.5
		c0.2,0,0.3,0.1,0.3,0.3V322.5z M156.9,326.3c0,0.2-0.1,0.3-0.3,0.3h-3.4c-0.2,0-0.3-0.1-0.3-0.3v-1.6c0-0.2,0.1-0.3,0.3-0.3h3.4
		c0.2,0,0.3,0.1,0.3,0.3V326.3z M152.1,326.4c0,0.2-0.2,0.3-0.3,0.3H148c-0.2,0-0.3-0.1-0.3-0.3v-1.6c0-0.2,0.1-0.3,0.3-0.3h3.8
		c0.2,0,0.3,0.1,0.3,0.3V326.4z M147,326.4c0,0.2-0.1,0.3-0.3,0.3h-3.8c-0.2,0-0.3-0.1-0.3-0.3v-1.3c0-0.2,0.1-0.3,0.3-0.3h3.8
		c0.2,0,0.3,0.1,0.3,0.3V326.4z M141.9,323.1c0,0.2-0.1,0.3-0.3,0.3h-3.5c-0.2,0-0.3-0.1-0.3-0.3v-1.3c0-0.2,0.1-0.3,0.3-0.3h3.5
		c0.2,0,0.3,0.2,0.3,0.3V323.1z M141.9,326.4c0,0.2-0.1,0.3-0.3,0.3h-3.5c-0.2,0-0.3-0.1-0.3-0.3v-1.3c0-0.2,0.1-0.3,0.3-0.3h3.5
		c0.2,0,0.3,0.1,0.3,0.3V326.4z M146.7,321.8v1.3c0,0.2-0.1,0.3-0.3,0.3h-3.5c-0.2,0-0.3-0.1-0.3-0.3v-1.3c0-0.2,0.1-0.3,0.3-0.3
		h3.5C146.6,321.4,146.7,321.6,146.7,321.8 M151.8,321.5v1.3c0,0.2-0.1,0.3-0.3,0.3H148c-0.2,0-0.3-0.1-0.3-0.3v-1.3
		c0-0.2,0.1-0.3,0.3-0.3h3.5C151.7,321.2,151.8,321.4,151.8,321.5 M140.6,319.1c0.3-0.1,1-0.4,1.6-0.4c0.6-0.1,0.6,0,1.1,0.1
		c0.5,0,1.1,0,1.5,0c0.5,0,1,0,1.6,0c0.6,0,0.7,0,0.9,0c0.2,0,4.1,0.2,4.3,0.2c0.1,0,0.1,0,0.1,0s1,0.2,1.2,0.2c0.2,0,0.5,0,0.9-0.1
		c0.3-0.1,0.3,0,0.4,0.1c0.1,0.1,0.4,0.2,0.7,0.3c0.3,0.1,0.8,0,0.9,0c0.2,0,0.3,0,0.4,0.2c0.1,0.1,0.1,0.2,0.1,0.4
		c0,0.3-0.6,0.2-0.6,0.2s-16.8-0.2-16.8-0.1C138.9,320.2,140.3,319.1,140.6,319.1 M161.2,322.8c-0.6-0.4-0.6-0.5-0.8-0.4
		c-0.1,0.1-1,0.2-1.5,0c-0.5-0.2-0.9-0.8-0.9-0.8s-0.4-1.1-0.6-1.3c-0.2-0.3-0.2-1.3-0.2-1.3s-0.8,0-0.9,0c-0.2,0-1.2-0.5-1.7-0.6
		c-0.5,0-0.6,0-1,0c-0.4,0-0.7-0.4-1.1-0.5c-0.4-0.1-1.1,0-1.8,0c-0.7,0-1.5,0-1.9-0.1c-0.3-0.1-2.9,0-3.1,0c-0.1,0-2.6,0.2-2.7,0.4
		c-0.1,0.2-2,0-2,0s-2.4,0.8-2.7,1c-0.4,0.2-0.6,0.4-0.8,0.7s-0.7,0.5-1.2,1.1c-0.5,0.6,0,0.8,0,1.4c0,0.6,0,0.4-0.2,0.8
		c-0.2,0.4-0.6,1.7-0.9,2.4c-0.3,0.8-0.2,3.3-0.2,3.3s24.8,0,25.7,0c0.9,0,2.3-3.3,2.3-3.3S161.8,323.2,161.2,322.8"/>
	<path class="st0" d="M115.7,305.9v-0.5l-0.4-0.3c0,0-0.1-0.6-0.1-0.8c0-0.2-0.6-0.7-0.6-0.8c0-0.1-0.4-0.4-0.6-0.4
		c-0.2,0-0.3-0.2-0.3-0.2s-0.1-0.1-0.1-0.3c0-0.2-0.2-0.9-0.2-1c0-0.2-0.3-0.3-0.4-0.6c-0.1-0.2-0.9-0.8-1.1-0.9
		c-0.2-0.1-0.6-0.2-0.9-0.1c-0.3,0.1-0.2,0.1-0.2,0.3c0,0.1,0.7,0.3,0.9,0.5c0.4,0.5,0.1,0.8,0.2,1.4c0.1,0.5-0.5,0.4-0.5,0.4
		s-0.3,0-0.8-0.1c0-0.3-0.2-0.6-0.5-0.7v-0.2h0h0c0.1,0,0.2,0,0.2-0.1c0-0.1-0.1-0.2-0.2-0.3l0-1.4H110l-0.1,1.4
		c-0.2,0-0.3,0.2-0.3,0.3c0,0.1,0.1,0.1,0.2,0.2l0,0.2c-0.2,0.1-0.4,0.3-0.5,0.6c-0.2,0-0.3,0-0.5-0.1c-0.1-0.2-0.2-0.5-0.4-0.6
		l0-0.2h0c0.1,0,0.2,0,0.2-0.1c0-0.1-0.1-0.2-0.2-0.3l0-1.4h-0.1l-0.1,1.4c-0.2,0-0.3,0.2-0.3,0.3c0,0.1,0.1,0.1,0.2,0.2l0,0.2
		c-0.2,0.1-0.3,0.2-0.4,0.4c0,0-0.1,0-0.2,0c-0.1-0.2-0.2-0.4-0.4-0.5l0-0.2h0c0.1,0,0.2,0,0.2-0.1c0-0.1-0.1-0.2-0.2-0.3l0-1.4
		h-0.1l-0.1,1.4c-0.2,0-0.3,0.2-0.3,0.3c0,0.1,0.1,0.1,0.2,0.2l0,0.2c-0.1,0.1-0.3,0.2-0.4,0.3c-0.1-0.2-0.2-0.3-0.4-0.4l0-0.2h0
		c0.1,0,0.2,0,0.2-0.1c0-0.1-0.1-0.2-0.2-0.3l0-1.4h-0.1l-0.1,1.4c-0.2,0-0.3,0.2-0.3,0.3c0,0.1,0.1,0.1,0.2,0.2l0,0.2
		c-0.1,0.1-0.2,0.2-0.3,0.3c-0.1,0-0.3,0-0.4,0c0-0.3-0.2-0.6-0.5-0.7l0-0.2h0c0.1,0,0.2,0,0.2-0.1c0-0.1-0.1-0.2-0.2-0.3l0-1.4
		l-0.1,0l-0.1,1.4c-0.2,0-0.3,0.2-0.3,0.3c0,0.1,0.1,0.1,0.2,0.2l0,0.2c-0.2,0.1-0.4,0.3-0.5,0.6c-0.1,0-0.2,0-0.2,0
		c-0.1-0.2-0.2-0.5-0.4-0.6l0-0.2h0c0.1,0,0.2,0,0.2-0.1c0-0.1-0.1-0.2-0.2-0.3l0-1.4l-0.1,0l-0.1,1.4c-0.2,0-0.3,0.2-0.3,0.3
		c0,0.1,0.1,0.1,0.2,0.2l0,0.2c-0.2,0.1-0.3,0.3-0.4,0.5c-0.1,0-0.2,0-0.3,0c0-0.3-0.2-0.6-0.5-0.7l0-0.2h0c0.1,0,0.2,0,0.2-0.1
		c0-0.1-0.1-0.2-0.2-0.3l0-1.4H101l-0.1,1.4c-0.2,0-0.3,0.2-0.3,0.3c0,0.1,0.1,0.1,0.2,0.2l0,0.2c-0.2,0.1-0.4,0.3-0.5,0.6
		c-0.4,0-0.2,0-0.4-0.3c-0.2-0.3-0.2-0.4-0.2-0.7c0-0.3,0-0.7,0.1-0.8c0.1-0.1,0.3-0.2,0.4-0.3c0,0,0.2-0.2-0.2-0.2
		c-0.4-0.1-0.9,0.6-1.2,1.1c-0.3,0.5-0.7,1-0.7,1.5c0,0.5-0.7,0.4-0.7,0.4c-2.5,1.3-1.6,3.9-1.6,3.9l0.1,0.4l-0.5,0.1
		c0,0,0,0.7-0.1,0.8c-0.1,0,0.3,0.1,0.6,0.1l-0.3,0.6l5.2,1.4v0.4h3.7v-0.3l11.2-0.4l-0.3-0.6l0.4-0.1v-0.8l-0.4-0.3v-1.2
		L115.7,305.9z"/>
</g>
<polygon class="st0" points="56.8,385.5 60.2,391.3 56.5,397.7 63.3,394.2 69.3,397.7 65.9,391.6 69.7,385.9 63.1,389.4 "/>
<polygon class="st0" points="201.5,384.4 204.9,390.3 201.1,396.6 208,393.2 213.9,396.6 210.6,390.5 214.4,384.8 207.8,388.4 "/>
<g>
	<path class="st0" d="M177.5,412c-1.4-0.9-3-1.5-4.6-1.9c-1.6-0.4-3.2-0.7-4.9-0.8c-1.6-0.1-3.3-0.1-4.9,0.2l4.8,0.9
		c1.6,0.3,3.1,0.6,4.7,1c0.4,0.1,0.8,0.2,1.1,0.3c0.4,0.1,0.8,0.2,1.1,0.4l1.1,0.4c0.4,0.2,0.7,0.3,1.1,0.5c1.4,0.7,2.8,1.4,4.1,2.5
		C180.3,414,179,412.9,177.5,412"/>
	<path class="st0" d="M180,410.2c-1.1-0.7-2.4-1.2-3.7-1.5c-1.3-0.3-2.6-0.5-3.9-0.6c-1.3-0.1-2.6,0-3.9,0.2l3.8,0.7
		c1.3,0.2,2.5,0.5,3.7,0.8c0.3,0.1,0.6,0.2,0.9,0.2c0.3,0.1,0.6,0.2,0.9,0.3l0.9,0.3c0.3,0.1,0.6,0.2,0.9,0.4c1.1,0.5,2.2,1.1,3.2,2
		C182.2,411.8,181.2,410.9,180,410.2"/>
	<path class="st0" d="M181.8,408.3c-1-0.6-2.1-1-3.2-1.3c-1.1-0.3-2.2-0.5-3.4-0.5c-1.1-0.1-2.3,0-3.4,0.2l3.3,0.6
		c1.1,0.2,2.2,0.4,3.2,0.7c0.3,0.1,0.5,0.1,0.8,0.2c0.3,0.1,0.5,0.1,0.8,0.2l0.8,0.3c0.3,0.1,0.5,0.2,0.8,0.3c1,0.4,1.9,1,2.8,1.7
		C183.7,409.8,182.8,409,181.8,408.3"/>
	<path class="st0" d="M184.2,406.7c-0.8-0.5-1.6-0.8-2.5-1c-0.9-0.2-1.8-0.4-2.7-0.4c-0.9,0-1.8,0-2.7,0.1l2.6,0.5
		c0.9,0.2,1.7,0.3,2.5,0.6c0.2,0,0.4,0.1,0.6,0.2c0.2,0.1,0.4,0.1,0.6,0.2l0.6,0.2c0.2,0.1,0.4,0.2,0.6,0.2c0.8,0.4,1.5,0.8,2.2,1.4
		C185.7,407.8,185,407.2,184.2,406.7"/>
	<path class="st0" d="M186.2,405.1c-0.6-0.4-1.4-0.7-2.1-0.9c-0.7-0.2-1.5-0.3-2.2-0.3c-0.7,0-1.5,0-2.2,0.1l2.2,0.4
		c0.7,0.1,1.4,0.3,2.1,0.5c0.2,0,0.3,0.1,0.5,0.1c0.2,0,0.3,0.1,0.5,0.2l0.5,0.2c0.2,0.1,0.3,0.1,0.5,0.2c0.7,0.3,1.3,0.7,1.8,1.1
		C187.4,406,186.8,405.5,186.2,405.1"/>
	<path class="st0" d="M188.7,403.7c-0.6-0.4-1.2-0.6-1.9-0.8c-0.6-0.2-1.3-0.3-2-0.3c-0.7,0-1.3,0-2,0.1l1.9,0.3
		c0.6,0.1,1.3,0.2,1.9,0.4c0.1,0,0.3,0.1,0.5,0.1c0.1,0,0.3,0.1,0.5,0.1l0.5,0.2c0.1,0.1,0.3,0.1,0.4,0.2c0.6,0.3,1.1,0.6,1.6,1
		C189.8,404.5,189.3,404.1,188.7,403.7"/>
	<path class="st0" d="M91,412c1.4-0.9,3-1.5,4.6-1.9c1.6-0.4,3.2-0.7,4.9-0.8c1.6-0.1,3.3-0.1,4.9,0.2l-4.8,0.9
		c-1.6,0.3-3.1,0.6-4.7,1c-0.4,0.1-0.8,0.2-1.1,0.3c-0.4,0.1-0.8,0.2-1.1,0.4l-1.1,0.4c-0.4,0.2-0.7,0.3-1.1,0.5
		c-1.4,0.7-2.8,1.4-4.1,2.5C88.3,414,89.6,412.9,91,412"/>
	<path class="st0" d="M88.5,410.2c1.1-0.7,2.4-1.2,3.7-1.5c1.3-0.3,2.6-0.5,3.9-0.6c1.3-0.1,2.6,0,3.9,0.2l-3.8,0.7
		c-1.3,0.2-2.5,0.5-3.7,0.8c-0.3,0.1-0.6,0.2-0.9,0.2c-0.3,0.1-0.6,0.2-0.9,0.3l-0.9,0.3c-0.3,0.1-0.6,0.2-0.9,0.4
		c-1.1,0.5-2.2,1.1-3.3,2C86.4,411.8,87.4,410.9,88.5,410.2"/>
	<path class="st0" d="M86.7,408.3c1-0.6,2.1-1,3.2-1.3c1.1-0.3,2.2-0.5,3.4-0.5c1.1-0.1,2.3,0,3.4,0.2l-3.3,0.6
		c-1.1,0.2-2.2,0.4-3.2,0.7c-0.3,0.1-0.5,0.1-0.8,0.2c-0.3,0.1-0.5,0.1-0.8,0.2l-0.8,0.3c-0.2,0.1-0.5,0.2-0.7,0.3
		c-1,0.4-1.9,1-2.8,1.7C84.8,409.8,85.8,409,86.7,408.3"/>
	<path class="st0" d="M84.3,406.7c0.8-0.5,1.6-0.8,2.5-1c0.9-0.2,1.8-0.4,2.7-0.4c0.9,0,1.8,0,2.7,0.1l-2.6,0.5
		c-0.9,0.2-1.7,0.3-2.5,0.6c-0.2,0-0.4,0.1-0.6,0.2c-0.2,0.1-0.4,0.1-0.6,0.2l-0.6,0.2c-0.2,0.1-0.4,0.2-0.6,0.2
		c-0.8,0.4-1.5,0.8-2.2,1.4C82.9,407.8,83.6,407.2,84.3,406.7"/>
	<path class="st0" d="M82.4,405.1c0.6-0.4,1.4-0.7,2.1-0.9c0.7-0.2,1.5-0.3,2.2-0.3c0.7,0,1.5,0,2.2,0.1l-2.2,0.4
		c-0.7,0.1-1.4,0.3-2.1,0.5c-0.2,0-0.3,0.1-0.5,0.1c-0.2,0-0.3,0.1-0.5,0.2l-0.5,0.2c-0.2,0.1-0.3,0.1-0.5,0.2
		c-0.7,0.3-1.3,0.7-1.8,1.1C81.2,406,81.8,405.5,82.4,405.1"/>
	<path class="st0" d="M79.9,403.7c0.6-0.4,1.2-0.6,1.9-0.8c0.6-0.2,1.3-0.3,2-0.3c0.7,0,1.3,0,2,0.1l-1.9,0.3
		c-0.6,0.1-1.3,0.2-1.9,0.4c-0.1,0-0.3,0.1-0.5,0.1c-0.1,0-0.3,0.1-0.5,0.1l-0.5,0.2c-0.1,0.1-0.3,0.1-0.4,0.2
		c-0.6,0.3-1.1,0.6-1.6,1C78.7,404.5,79.3,404.1,79.9,403.7"/>
	<path class="st0" d="M70.4,376.1c0,0-0.2,2.6,1,2.5c1.2,0,14-0.8,14.9-0.2c0.9,0.6,2.8,0.8,2.6,1.2c-0.1,0.5-9.1,1.3-12.2,0.9
		c-3.1-0.4-2.5,0.6-1.7,1.1c0.8,0.5,1.9,2.2,1.9,2.2s0,0.4-0.8,0.8c-0.8,0.4-0.7,1.4,0.4,2.1c1.1,0.8,3,1.9,3,1.9l1.4,0.8h2.7
		c0,0,2,0.9,0.5,0.9c-1.5,0.1-1.3,0-1.1,0.7c0.2,0.6,1.5,2.2,1.5,2.2l7.6,6l-14.9-9.5l-7.1-6.8l-4.7-5.2l-0.6-1.7H70.4z"/>
	<path class="st0" d="M100.7,375.7l9.7,11.1c0.1,0.1,0.2,0,0.1-0.1l-7.5-11.5L100.7,375.7z"/>
	<path class="st0" d="M77.2,384.2l1.1,0.6l21.5,0.7c0,0,4.9,0.5,5.1,0.5c0.1,0,2.5,0.4,2.5,0.4l1,0.4l-0.4,0.6H106l-3.9-0.4
		l-5.9-0.2l-10.9-0.7c0,0-4.7-0.1-5.2,0c-0.5,0.1-1.4,0.1-1.7-0.3c-0.3-0.4-0.6-0.8-0.6-0.8l-1.1-0.7L77.2,384.2z"/>
	<path class="st0" d="M98.1,390.7c0,0,4.8-1.5,5.3-1.4c0.5,0.1,1,0,1.5,0.2c0.5,0.2,1.3-0.1,0.5,0.2c-0.8,0.3-1.5,0.9-1.5,0.9
		s-0.4,0.3,0.2,0.3h1.1c0,0,0.6,0.2,0.1,0.6c-0.5,0.4-0.3,0.8-1.4,1c-1.1,0.2-1.6,0.1-2.5,0c-0.8-0.1-1.8-0.4-1.8-0.4
		s-0.8-0.6-0.9-0.6c-0.2-0.1-0.9-0.6-0.9-0.6L98.1,390.7z"/>
	<path class="st0" d="M115.9,381.4c0,0,4.8,3.1,8,3.2c3.2,0.1,3.3,0.5,3.2,0.6c-0.1,0.1-0.7,0.9-1.3,1s-4.5,0.9-5.7,0
		c-1.2-0.9-3.1-1.8-3.2-2.2c-0.1-0.4-0.9-1.3-0.9-1.5S115.1,381.4,115.9,381.4"/>
	<path class="st0" d="M106,396.4c0,0,1.8-0.5,2-0.7c0.3-0.1,1.3-0.1,1.6-0.2c0.3-0.1,1.9-0.1,2.1-0.1c0.2,0,1.5,0,1.7,0.1
		c0.2,0.1,1,0.5,1.5,0.5c0.5,0,1.3,0.1,1.6,0.1c0.4,0,2.1,0.4,2.4,0.4c0.2,0,2,0.2,2.3,0.2c0.3,0,1.4,0.1,1.5,0.2
		c0.1,0.1,0.7,0.6,0.7,0.6l-1,0.4c0,0-1.6,0.1-1.9,0c-0.3-0.1-2.2-0.6-2.8-0.6c-0.5,0-3.2-0.4-3.4-0.5c-0.2-0.1-1.2-0.4-1.7-0.3
		c-0.4,0.1-2.4-0.1-2.6,0c-0.2,0.1-1.2,0-1.5,0.2c-0.3,0.1-0.6,0.2-1.1,0.3c-0.4,0.1-0.9,0.3-1.4,0.2c-0.5-0.1-1-0.1-0.8-0.4
		C105.6,396.8,106,396.4,106,396.4"/>
	<path class="st0" d="M107.7,398.4c0.1,0,0.8-0.1,1-0.2c0.1,0,1.8,0,1.9,0.1c0.1,0.1,1-0.1,1.1,0.1s0.6,0.8,0.8,0.8s0.4,0.1,0.3,0.4
		c0,0.2-0.3,0.4-0.4,0.4c-0.1,0-0.8,0.1-0.9,0c-0.1-0.1-0.9-0.4-0.9-0.3s-1.4,0.1-1.4,0.1s-0.9-0.2-1-0.2c-0.2,0-1-0.1-1-0.1
		s-0.2-0.5,0.2-0.6C107.5,398.8,107.7,398.4,107.7,398.4"/>
	<path class="st0" d="M107.7,401.8l1.2-0.1l0.9,0.3l0.4,0.2c0,0-0.1,0.5-0.4,0.7c-0.3,0.1-1.4,0.5-2,0.4c-0.6-0.1-1.4-0.3-1.4-0.3
		l0.2-0.5L107.7,401.8z"/>
	<path class="st0" d="M141.2,395.4c0,0,3.4,0,4.4,0c1,0,1.7-0.1,2.3,0c0.6,0.1,1.9,0.1,2.2,0.2c0.3,0.1,1.2,0.1,1.2,0.3
		c0,0.1-0.1,0.4-0.4,0.5c-0.3,0.1-4.2,1-5.3,0.9c-1.1,0-3.6-0.1-4.3-0.1c-0.8,0-3.7,0.3-4.6,0.1c-0.9-0.1-3.3-0.3-3.9-0.3
		c-0.6,0-1.4,0.1-1.6,0c-0.1-0.1-0.6-0.3-0.6-0.5c0-0.1,0.3-0.5,0.4-0.6c0.1,0,0.9-0.1,1.4-0.1c0.5,0,2.6,0,2.9,0s1.2,0,1.8,0
		c0.6,0,1.2,0.1,1.9-0.1C139.9,395.4,141.2,395.4,141.2,395.4"/>
	<path class="st0" d="M136.5,397.9c0.6,0.1,1.1,0.3,1.6,0.3c0.4,0,1.4,0.2,1.4,0.2s0.4,0.4,0.2,0.5c-0.2,0.1-1,0.2-1.3,0.3
		c-0.3,0.1-1.9,0-2,0s-1.9,0.2-2.1,0c-0.1-0.1-1.7-0.5-1.9-0.5c-0.2,0-1-0.2-0.9-0.3c0.1-0.1,0,0,0.6-0.2c0.6-0.2,1.2-0.4,1.6-0.3
		C134,398.3,135.9,397.8,136.5,397.9"/>
	<path class="st0" d="M202.8,372.4l-2.5,2.7c0,0-2.1-0.1-3.1,0c-1,0.1-2.8,0.1-3.5,0c-0.8-0.1-1.3,0.1-1.8,0.1c-0.4,0-1.4-0.1-1.9,0
		c-0.5,0.1-1.5,0.8-1.5,0.8s-0.7,0.3,0.4,0.5c1.1,0.2,1.7-0.2,2.5,0c0.8,0.2,1.9-0.1,2.6,0c0.6,0.1,1.8,0.4,2.2,0.5
		c0.4,0.1,1.8,0.3,2.3,0.3h0.9l-6.5,8.3c0,0-1.4,0.7-3.8,0c-2.4-0.7-4.6-1.2-5.8-1.3c-1.2-0.2-2.8-0.4-3.3-0.3
		c-0.6,0.1-1.6,0.2-2,0.6c-0.4,0.4-2.3,0.7-2.7,0.6c-0.3-0.1-1.3-0.8-3.2-0.6c-1.9,0.1-4.4,0.3-5.8,0.4c-1.3,0.2-3.6,0.8-3.8,1
		c-0.2,0.2-0.8,0.3-0.6,0.7c0.2,0.4-0.8,0.4,0.6,0.7c1.3,0.2,5.4,0.6,7.8,0c2.3-0.7,2.9-0.7,3.5-0.7s3.2-0.1,4.1-0.1
		c0.8,0,2.2,0.6,2.4,0.8c0.2,0.1,1.6,0.2,0.2,1c-1.4,0.8-2.4,1.8-3.4,1.6c-1-0.2-4.4,0-6.5,0c-2.1,0-4.8,0-6.1,0
		c-1.4,0-5.1,0.2-5.8,0.3c-0.7,0.1-2.7,0.1-3.5,0.3c-0.8,0.2-3.7,0.4-3.8,0.6c-0.1,0.2-1.5,0.3-1.3,0.9c0.2,0.6,0.1,0.9,1.3,1.1
		c1.2,0.1,2.9,0.6,3.7,0.3c0.8-0.3,3-0.5,4.1-0.5c1.1,0,4.6-0.6,5.6-0.3c1,0.2,7.2-0.2,9.1,0.5c1.9,0.7,4.1,0.9,5,1.3
		c1,0.3,1.7-0.5,2.2-0.7c0.5-0.2,2.8-1.7,2.9-1.2c0.1,0.5-0.6,2-0.6,2l-2.1,2l-1.6,2l11.3-6.4l9.8-10.2l7.7-9.9l-1.2-0.6
		L202.8,372.4z"/>
	<path class="st0" d="M135,400.6c0,0,1.9,0.3,2.1,0.3c0.2,0,1.6,0.1,2,0.1h1.4c0.3,0,0.7,0,0.5,0.2c-0.2,0.1-0.7,0.7-0.9,0.7
		c-0.2,0-0.9,0.1-1.7,0.1s-1.6,0-2.4,0c-0.8-0.1-1-0.2-1.6-0.2c-0.6,0-2.2-0.1-2.3-0.1s-0.6,0.1-0.4-0.2c0.2-0.2,0.7-0.5,1.1-0.5h1
		C134.4,401,135,400.6,135,400.6"/>
	<path class="st0" d="M199,378.7c0,0-7.5,1-9.6,1.1c-2.2,0.1-2.8-0.1-4.9,0c-2.1,0.1-3.4-0.1-4.6,0c-1.2,0.1-1.9,0.3-0.9,0.5
		c1,0.2,1.9-0.2,2.5,0c0.7,0.2,7.2,0,8.5,0.1c1.2,0,1.4-0.5,3-0.4c1.7,0.2,3.2,0.4,3.5,0.4c0.4,0,1.9,0.1,2.5,0
		C199.5,380.4,199,378.7,199,378.7"/>
	<path class="st0" d="M175.7,372.5c0,0-0.6,0.9-0.7,0.9c-0.1,0-0.5,0.7-0.8,1.2c-0.3,0.5-0.4,0.5-0.3,0.8c0.1,0.3-0.1,0.6,0.4,0.7
		c0.5,0,0.7,0,1-0.3c0.3-0.3,0.8-0.6,0.9-0.8c0.1-0.2,0.1-0.2,0.7-0.7c0.6-0.5,1.3-0.9,1.3-0.9s-0.4-0.1,0.1-0.4
		c0.5-0.3,1-0.5,1-0.5H175.7z"/>
	<path class="st0" d="M110.6,375.5c0,0,4.6,3.1,8.6,3.7c4,0.6,13.8,2.2,15.3,2.2c1.5,0,11.8-0.2,15.5-0.5c3.7-0.2,8.5-0.4,13.3-1.3
		c4.8-0.9,4.7-1,5.9-1.2c1.2-0.1,1.8-0.6,2.2-0.6c0.5,0,1.5-0.1,1.5,0.1c0,0.2,0,0.6-0.4,1.1c-0.4,0.5-3.5,1.6-4.6,1.8
		c-1.1,0.2-9.1,2.7-16.5,2.9c-7.4,0.3-16.2,1-22.9,0.3c-6.7-0.7-13.9-3.3-15.1-4.8c-1.2-1.5-3.5-3.2-3.5-3.2l0.4-0.5H110.6z"/>
	<path class="st0" d="M137.7,406.6l-1.4,0l-1.4,0c-0.3,0-5.2-0.1-15.1,2.1c3.2,0.6,6.4,1,9.7,1.2c1.8-0.2,3.1-0.3,4-0.4v0
		c1.4-0.1,3.5-0.1,5.6,0v0c0.3,0,0.6,0,0.9,0.1c0.1,0,0.2,0,0.3,0c0.6,0,1.2,0.1,2,0.2c3.2-0.3,6.4-0.7,9.5-1.3
		C142.5,406.5,138,406.6,137.7,406.6 M225.7,446c0,0.1-0.1,0.3-0.2,0.3c-3.7,1.1-17.7,3.8-42-6.1c-8.3-3.4-15.6-5.8-21.7-7.5
		c-1.9-0.5-3.6-1-5.2-1.3c-9.1-2.1-14.9-2.6-17.5-2.6v-0.1c-2.1-0.1-4.1,0-5.6,0v0c-2.7,0.1-8.9,0.5-18.5,2.9
		c-1.7,0.4-3.4,0.9-5.3,1.4c-5.9,1.7-12.8,4-20.6,7.2c-24.3,10-38.3,7.2-42,6.1c-0.1,0-0.2-0.2-0.2-0.3v-18c0-0.1,0.1-0.2,0.1-0.2
		c0,0,0.1-0.1,0.2-0.1h0c5.2,0.6,18.4,1.1,36-4.5c1.1-0.3,2.2-0.7,3.3-1.1c1-0.4,2.1-0.7,3.2-1.1c13.5-5.2,23.9-8,31.3-9.6
		c3.6-0.8,6.4-1.2,8.6-1.5c1.8-0.2,3.1-0.3,4-0.4v0c1.4-0.1,3.5-0.1,5.6,0v0c0.3,0,0.6,0,0.9,0.1c0.1,0,0.2,0,0.3,0
		c0.6,0,1.2,0.1,2,0.2c2.1,0.2,4.9,0.7,8.4,1.4c7.4,1.5,18.2,4.4,32.3,9.8c0.6,0.2,1.2,0.5,1.9,0.7c1.1,0.4,2.1,0.8,3.2,1.1
		c18.3,6,32,5.5,37.3,4.9h0c0.1,0,0.2,0,0.2,0.1c0,0,0.1,0.1,0.1,0.2V446z M227.5,425.6c-0.7-0.6-1.5-0.9-2.4-0.8
		c-4.9,0.5-17.2,1-33.7-4c-1-0.3-2.1-0.7-3.2-1c-1.4-0.5-2.8-1-4.3-1.5c-10.9-4.1-19.8-6.8-26.7-8.6c-2-0.5-3.8-0.9-5.5-1.3
		c-9.2-1.9-13.7-1.9-14.1-1.9l-1.4,0l-1.4,0c-0.3,0-5.2-0.1-15.1,2.1c-1.7,0.4-3.6,0.8-5.6,1.3c-6.8,1.7-15.3,4.3-25.6,8.3
		c-1.9,0.8-3.8,1.4-5.7,2c-1.1,0.4-2.2,0.7-3.3,1c-15.7,4.5-27.4,4.1-32.2,3.6c-0.9-0.1-1.7,0.2-2.4,0.8c-0.7,0.6-1,1.4-1,2.3v18
		c0,1.4,0.9,2.6,2.3,3c1.6,0.5,5.2,1.3,10.6,1.3c7.5,0,18.6-1.5,33.2-7.5c10.4-4.3,19.1-6.9,25.9-8.6c2.6-0.6,5-1.1,7-1.5
		c7.6-1.4,11.6-1.2,11.7-1.2l1.5,0.1l1.5-0.1c0.1,0,3.8-0.1,10.8,1.1c2,0.3,4.4,0.8,7,1.4c7,1.6,16,4.3,26.9,8.8
		c14.6,6,25.7,7.5,33.2,7.5c5.4,0,9-0.8,10.6-1.3c1.3-0.4,2.3-1.6,2.3-3v-18C228.5,427.1,228.1,426.2,227.5,425.6 M137.7,406.6
		l-1.4,0l-1.4,0c-0.3,0-5.2-0.1-15.1,2.1c3.2,0.6,6.4,1,9.7,1.2c1.8-0.2,3.1-0.3,4-0.4v0c1.4-0.1,3.5-0.1,5.6,0v0
		c0.3,0,0.6,0,0.9,0.1c0.1,0,0.2,0,0.3,0c0.6,0,1.2,0.1,2,0.2c3.2-0.3,6.4-0.7,9.5-1.3C142.5,406.5,138,406.6,137.7,406.6
		 M137.7,406.6l-1.4,0l-1.4,0c-0.3,0-5.2-0.1-15.1,2.1c3.2,0.6,6.4,1,9.7,1.2c1.8-0.2,3.1-0.3,4-0.4v0c1.4-0.1,3.5-0.1,5.6,0v0
		c0.3,0,0.6,0,0.9,0.1c0.1,0,0.2,0,0.3,0c0.6,0,1.2,0.1,2,0.2c3.2-0.3,6.4-0.7,9.5-1.3C142.5,406.5,138,406.6,137.7,406.6"/>
	<path class="st0" d="M228.9,439.7l-0.5-12.4c0-0.3-0.2-0.7-0.4-0.9l-1.3-1.3c-0.3-0.3-0.7-0.4-1.1-0.4l-0.4,0
		c-5-1.5-10.1-4.1-11.2-4.8c-0.4-0.3-0.1-0.5,0.4-0.7c7.6,0.5,22,0.4,31.8-5.8c-1.7,3.7-4.5,8.7-8.1,12.3c-0.3,0.3-0.4,0.6-0.4,1
		c0,0.4,0.2,0.8,0.4,1l9.4,8.7C244.1,437.7,236.5,440.1,228.9,439.7 M251.2,435.9l-10-9.3c6.2-6.8,9.6-16.8,9.8-17.3
		c0.2-0.6,0-1.3-0.6-1.7c-0.6-0.3-1.3-0.2-1.7,0.2c-11.4,11.7-38.5,8-38.8,8c-0.5-0.1-1.1,0.2-1.4,0.6c-0.3,0.4-0.3,1-0.1,1.5
		c1.2,2.2,0,6-0.5,7.3c-0.2,0.4-0.2,0.9,0.1,1.3c0.2,0.4,0.7,0.6,1.1,0.7l8.7,0.6h0.2l7.2-0.3l0.5,0.5l0.5,13.1
		c0,0.7,0.6,1.3,1.3,1.4c1,0.1,2,0.1,3,0.1c10.3,0,19.9-4.2,20.4-4.4c0.4-0.2,0.8-0.6,0.8-1.1C251.7,436.7,251.6,436.2,251.2,435.9"
		/>
	<path class="st0" d="M24.6,436.2l9.4-8.7c0.3-0.3,0.4-0.6,0.5-1c0-0.4-0.1-0.8-0.4-1c-3.6-3.6-6.4-8.6-8.1-12.3
		c9.8,6.2,24.2,6.2,31.8,5.8c0.5,0.2,0.8,0.4,0.4,0.7c-1,0.7-6.1,3.4-11.2,4.9l-0.5,0.2c-0.7,0.3-1.2,0.5-1.5,0.8l-0.8,0.7
		c-0.2,0.3-0.4,0.6-0.4,0.9l-0.5,12.4C35.7,439.8,28.1,437.5,24.6,436.2 M20.6,436.9c0.1,0.5,0.4,0.9,0.8,1.1
		c0.4,0.2,10,4.4,20.4,4.4c1,0,2,0,3-0.1c0.7-0.1,1.3-0.6,1.3-1.3l0.5-13.1l0.5-0.5l7.2,0.3h0.2l8.7-0.6c0.5,0,0.9-0.3,1.1-0.7
		c0.2-0.4,0.3-0.9,0.1-1.3c-0.6-1.3-1.8-5.1-0.5-7.3c0.3-0.5,0.2-1-0.1-1.5c-0.3-0.5-0.8-0.7-1.4-0.6c-0.3,0-27.4,3.8-38.8-8
		c-0.5-0.5-1.2-0.6-1.8-0.2c-0.6,0.3-0.8,1-0.6,1.7c0.1,0.5,3.6,10.5,9.8,17.3l-10,9.2C20.7,436,20.5,436.4,20.6,436.9"/>
	<path class="st0" d="M55.6,440l-0.2,0.1l-0.3,0.1c0.1,0,0.1-0.1,0.2-0.1c0.6-0.5,0.8-1.1,0.8-1.9c-0.1-0.9-0.4-1.5-1-1.9
		c-0.5-0.3-1.1-0.5-1.7-0.5h0c0.1-0.1,0.2-0.1,0.3-0.2c0.3-0.2,0.7-0.3,1.2-0.4c0.1,0,0.1,0,0.2,0c0.5,0,0.9,0.1,1.3,0.3
		c0.4,0.3,0.7,0.6,0.8,0.9c0.2,0.4,0.2,0.7,0.3,1l0,0.7c0,0.3-0.2,0.6-0.5,1c-0.3,0.4-0.6,0.6-0.9,0.7L55.6,440z M53.8,439.2
		c0,0-0.2,0.1-0.6,0.1c-0.1,0-0.3,0-0.5-0.4c-0.1-0.1-0.1-0.3-0.2-0.4l0-0.1c0-0.2-0.1-0.3-0.1-0.4v-0.2l0.1-0.2l0.1-0.1
		c0.1-0.1,0.3-0.2,0.5-0.2l0.1-0.5v0.5c0.3,0,0.5,0.1,0.6,0.2c0.2,0.4,0.2,0.6,0.2,0.9C53.9,438.8,53.8,439.1,53.8,439.2
		 M56.5,441.4c0.7-0.2,1.2-0.5,1.7-0.8c0.9-0.7,1.3-1.7,1.3-3c-0.1-1.2-0.5-2.2-1.3-3c-0.8-0.7-1.8-1-3.1-1h-0.2
		c-1.4,0-2.5,0.5-3.1,1.4c-0.6,0.8-0.8,1.7-0.8,2.7c0,0.8,0.2,1.4,0.6,1.9c0.2,0.4,0.6,0.7,1.1,0.9c-0.3,0.2-0.5,0.4-0.6,0.6
		l-0.3,0.7l0.1,1.5l14.5-0.4v-1.7l-10,0.3C56.3,441.4,56.4,441.4,56.5,441.4"/>
	<path class="st0" d="M78.5,436.4c-0.2,0.7-0.4,1-0.5,1.1c-0.3,0.3-0.4,0.3-0.4,0.3l-0.2,0.1L77,438c0.1-0.5,0.2-1,0.2-1.5
		c0-0.5-0.1-1-0.2-1.5c-0.2-0.8-0.6-1.5-1.2-2.1c-0.4-0.4-0.8-0.7-1.1-0.9c0.2,0,0.4-0.1,0.6-0.1c0.5,0,1,0.1,1.6,0.5
		c0.9,0.5,1.4,1.2,1.7,2.2c0.1,0.3,0.1,0.6,0.1,0.9C78.6,435.8,78.6,436.1,78.5,436.4 M75.1,437.9c-0.2,0.7-0.6,0.8-0.7,0.9
		c-0.2,0-0.3,0.1-0.4,0.1c-0.3,0-0.6-0.1-0.8-0.4c-0.4-0.5-0.7-1.1-1-1.9c-0.2-0.7-0.2-1.3-0.1-2.1c0-0.6,0.3-1,0.7-1.2
		c0.4,0.1,0.8,0.3,1.2,0.7c0.5,0.4,0.8,1.1,1.1,2C75.2,436.7,75.2,437.3,75.1,437.9 M70.5,433.5l-0.1,0.2c-0.1,0.3-0.1,0.6-0.2,0.8
		c0,0.3,0,0.7,0,1.1l0,0.1c0,0.2,0.1,0.4,0.1,0.7c-0.1-0.1-0.2-0.1-0.3-0.1c-0.1,0-0.2,0-0.2,0c-0.1,0-0.2,0-0.2,0
		c-0.1,0-0.2,0-0.4,0c-0.1,0-0.1,0-0.2,0l0,0c-0.2,0-0.5,0.1-1,0.2c-0.2,0-0.5,0.2-0.7,0.3v-0.2c0-0.3,0.1-0.6,0.1-0.8
		c0.1-0.3,0.1-0.5,0.2-0.6c0.2-0.4,0.4-0.7,0.8-0.9c0.3-0.2,0.8-0.5,1.5-0.8l0,0l0.1,0l0.1,0l0.1,0c0.1,0,0.1,0,0.2,0
		C70.6,433.2,70.5,433.4,70.5,433.5 M69.6,439.8c-0.1,0.2-0.3,0.3-0.5,0.3c-0.1,0-0.1,0-0.2,0c-0.1,0-0.3-0.1-0.4-0.2
		c-0.2-0.2-0.3-0.3-0.4-0.5c0-0.1-0.1-0.1-0.1-0.2l-0.1-0.3c0-0.1,0-0.3,0.1-0.6c0.1-0.2,0.2-0.4,0.3-0.4c0.1,0,0.3-0.1,0.4-0.1
		c0.2,0,0.3,0.1,0.3,0.1c0,0,0.1,0.1,0.1,0.1c0,0,0,0,0.1,0.1c0,0,0.1,0.1,0.1,0.1c0.1,0.1,0.1,0.1,0.1,0.1s0,0,0,0l0,0l0.2,0.4l0,0
		l0,0.1C69.7,439.3,69.8,439.6,69.6,439.8 M78.2,430.8c-0.6-0.3-1.3-0.5-2.1-0.5c-0.7,0-1.5,0.1-2.3,0.3c-0.4,0.1-0.8,0.3-1.1,0.5
		l-0.4,0.2l-0.2,0.2l-0.1,0l-0.3,0h-0.3l-0.3,0c-0.3,0-0.9,0.1-1.5,0.3c-0.4,0.1-0.7,0.2-1.1,0.4c-0.3,0.1-0.6,0.3-1,0.5
		c-0.6,0.4-1.1,1-1.4,1.6c-0.6,1.2-0.6,2.7-0.2,4.4c0.3,1.2,0.8,2,1.4,2.5c0.5,0.4,1,0.6,1.5,0.6c0.2,0,0.4,0,0.7-0.1
		c1-0.3,1.5-0.7,1.8-1.3c0.1-0.3,0.2-0.6,0.2-0.9c0,0,0.1,0.1,0.1,0.1c0.5,0.5,1.1,0.8,1.6,0.9c0.1,0,0.3,0,0.4,0
		c0.3,0,0.6,0,0.9-0.1c1.1-0.3,1.8-1,2.2-1.9l0.8,1.4l0.5-0.5l0.7-0.4c0.6-0.3,1-0.8,1.4-1.4c0.3-0.6,0.5-1.2,0.5-1.9
		c0-0.6,0-1.1-0.1-1.5C80.1,432.5,79.3,431.4,78.2,430.8"/>
</g>
<polygon class="st0" points="97.9,422.8 100.4,430.2 96.3,431.7 93.7,424.1 91.7,424.8 94.8,433.8 102.9,431 99.9,422.1 "/>
<g>
	<path class="st0" d="M93.4,422.1L93.4,422.1c0.2,0.3,0.5,0.5,1,0.6c0.2,0,0.3,0.1,0.5,0.1c0.2,0,0.3,0,0.5-0.1l0.1,0l0.2-0.1
		c0.5-0.3,0.8-0.6,0.9-0.9c0.2-0.4,0.2-0.8,0.1-1.2l-0.1-0.3l0,0c-0.3-0.4-0.6-0.6-1-0.7c-0.2-0.1-0.3-0.1-0.5-0.1
		c-0.2,0-0.4,0-0.6,0.1l0,0l-0.3,0.2l-0.4,0.3l0,0c-0.4,0.4-0.5,1-0.3,1.7L93.4,422.1z"/>
	<path class="st0" d="M109.4,426.7c-0.1,0.2-0.3,0.3-0.4,0.3l-0.1,0c-0.1,0-0.1,0-0.2,0c-0.1,0-0.2,0-0.4-0.2
		c-0.3-0.3-0.5-0.5-0.5-0.7c0-0.1-0.1-0.3,0-0.8c0.1-0.3,0.2-0.5,0.3-0.5l0.1,0c0.1,0,0.2,0,0.3,0c0.1,0,0.2,0,0.4,0.1
		c0.1,0.1,0.2,0.2,0.2,0.3l0.1,0.1c0,0,0.1,0.1,0.1,0.1l0,0.1l0,0.1l0,0l0.1,0.3C109.5,426.2,109.6,426.5,109.4,426.7 M105.9,419.6
		c0-0.2,0.1-0.4,0.5-0.5c0.1,0,0.2,0,0.3,0c0.1,0,0.2,0,0.4,0.2c0.2,0.2,0.4,0.5,0.6,0.9l0.1,0.2v0.2c0,0.1,0,0.3-0.1,0.5
		c-0.1,0.2-0.2,0.4-0.4,0.5c-0.1,0-0.2,0-0.3,0c-0.1,0-0.2,0-0.3-0.1c-0.2-0.1-0.3-0.2-0.4-0.4c0-0.1-0.1-0.1-0.1-0.2l0-0.1v-0.1
		l0-0.1C105.8,420.3,105.8,420,105.9,419.6 M110,423.4c-0.4-0.2-0.8-0.2-1.2-0.2c-0.3,0-0.6,0-1,0.2c-0.8,0.3-1.3,0.8-1.5,1.5
		c-0.2,0.6-0.2,1.2,0,1.8c0.2,0.5,0.4,0.9,0.6,1.2c-0.2,0-0.3,0-0.5-0.1c-0.4-0.1-0.9-0.4-1.4-0.9c-0.5-0.5-0.9-1.3-1.2-2.2
		c-0.3-0.9-0.4-1.7-0.4-2.6c0-0.8,0.2-1.4,0.6-1.8c0.1-0.1,0.1-0.1,0.2-0.2c0,0.4,0.1,0.8,0.2,1.3c0.2,0.7,0.7,1.2,1.3,1.4
		c0.3,0.1,0.7,0.2,1,0.2c0.3,0,0.6,0,0.8-0.1c0.8-0.3,1.4-0.7,1.8-1.3c0.3-0.4,0.5-1.1,0.1-2.3c-0.2-0.7-0.8-1.3-1.5-1.6
		c-0.4-0.1-0.8-0.2-1.2-0.2c-0.5,0-1,0.1-1.6,0.3c-1.7,0.5-2.8,1.5-3.5,2.9c-0.6,1.4-0.6,2.9-0.1,4.6c0.5,1.4,1.2,2.5,2.1,3.1
		c1,0.6,1.9,1,2.8,1c0.2,0,0.4,0,0.6,0c0.6,0,1.2-0.1,1.7-0.2c0.9-0.3,1.6-0.7,2.2-1.4c0.4-0.5,0.8-1.3,0.4-2.6
		C111.2,424.3,110.7,423.7,110,423.4"/>
</g>
<polygon class="st0" points="117,416.9 119.1,424.5 114.9,425.7 112.7,417.9 110.7,418.5 113.2,427.7 121.5,425.4 119,416.4 "/>
<g>
	<path class="st0" d="M132.4,420.4l-0.3,0.1l-0.3,0.1c0,0,0.1-0.1,0.2-0.1c0.6-0.4,0.9-1,0.9-1.8c0-0.9-0.3-1.6-0.9-2
		c-0.5-0.4-1.1-0.5-1.7-0.6h0c0.1-0.1,0.2-0.1,0.3-0.2c0.3-0.2,0.7-0.3,1.2-0.3c0.6,0,1.1,0.2,1.5,0.5c0.4,0.2,0.6,0.5,0.7,0.9
		c0.1,0.4,0.2,0.7,0.2,1l-0.1,0.7c-0.1,0.3-0.2,0.6-0.6,0.9c-0.3,0.3-0.6,0.6-0.9,0.7L132.4,420.4z M130.6,419.5
		c-0.1,0-0.2,0.1-0.6,0.1c-0.2,0-0.3,0-0.5-0.4c-0.1-0.2-0.1-0.4-0.2-0.6c0-0.1-0.1-0.2-0.1-0.4c0-0.1,0-0.2,0-0.2l0.1-0.2l0.1-0.1
		c0.1-0.1,0.3-0.2,0.4-0.2V417l0,0.5c0.5,0,0.6,0.2,0.6,0.3c0.1,0.3,0.2,0.6,0.2,0.8C130.7,419.1,130.7,419.4,130.6,419.5
		 M133.2,421.8c0.7-0.2,1.2-0.4,1.7-0.7c0.9-0.7,1.4-1.6,1.4-2.9c0-1.3-0.4-2.3-1.1-3.1c-0.8-0.8-1.8-1.1-3.2-1.2h-0.1
		c-1.4,0-2.4,0.4-3,1.3c-0.6,0.9-0.9,1.8-0.9,2.7c0,0.8,0.2,1.4,0.5,2c0.3,0.4,0.6,0.8,1,0.9c-0.3,0.1-0.5,0.3-0.7,0.6l-0.3,0.6
		l0,1.5l14.5,0.2l0-1.7l-10.1-0.1C132.9,421.9,133,421.9,133.2,421.8"/>
	<path class="st0" d="M155.3,416.7c-0.1-0.1-0.2-0.1-0.6-0.2l-1.2-0.3l-1.3,7.8l-3.1-0.6l1.2-7.7l-2.2-0.4l-1.1,6.2
		c-0.1,0.4-0.2,0.7-0.4,1c-0.1,0.1-0.2,0.2-0.4,0.2c-0.1,0-0.2,0-0.3,0c-0.2,0-0.4-0.1-0.5-0.3c-0.1-0.2-0.1-0.5-0.1-0.9l1.1-6.5
		l-0.5,0h-0.1l-0.2,0l-0.1,0l-0.7-0.2l-1.1,6.3c-0.2,1.4-0.1,2.2,0.3,2.6c0.2,0.3,0.5,0.4,0.7,0.5l0.3,0.2l0.2,0l0.1,0.1l0.2,0
		l0.2,0c0.2,0,0.3,0,0.5,0c0.2,0,0.4,0,0.5-0.1l0,0.2l7.3,1.2l1.6-9L155.3,416.7z"/>
</g>
<polygon class="st0" points="154.9,426.2 156.3,426.7 158.3,418.9 160.1,419.4 158.1,427.1 160.2,427.6 162.2,419.9 163.8,420.3 
	164.1,418.8 157.2,417.1 "/>
<path class="st0" d="M160.2,417l0.1,0l0.2,0h0.1c0.6,0,1-0.1,1.2-0.2c0.4-0.2,0.7-0.6,0.7-1l0.1-0.3v-0.1c0-0.5-0.2-0.9-0.6-1.2
	c-0.3-0.2-0.6-0.4-0.9-0.5l0,0l-0.4,0h-0.5c-0.3,0-0.9,0.3-1.1,1.2l-0.1,0.4v0c0,0.4,0.1,0.7,0.5,1.1
	C159.7,416.7,159.9,416.9,160.2,417"/>
<path class="st0" d="M169.6,425.2c-0.3,1-0.7,1.7-1.1,2.1c-0.5,0.5-0.9,0.7-1,0.7c-0.1,0-0.1,0-0.2,0c0.4-0.3,0.6-0.7,0.7-1.2
	c0.3-0.8,0.2-1.5-0.1-2.1c-0.3-0.7-1-1.2-2-1.5c-0.2-0.1-0.5-0.1-0.7-0.1c-0.1,0-0.3,0-0.4,0l0.2-0.2l0.4-0.5
	c0.3-0.3,0.7-0.6,1.2-0.8c0.2-0.1,0.5-0.1,0.7-0.1c0.2,0,0.5,0,0.8,0.1c0.9,0.3,1.4,0.7,1.6,1.2
	C169.9,423.6,169.9,424.3,169.6,425.2 M165.7,426.4c-0.1,0.3-0.2,0.5-0.5,0.7c-0.1,0.1-0.3,0.1-0.4,0.1c0,0-0.1,0-0.1,0
	c-0.3-0.1-0.5-0.2-0.6-0.6c-0.1-0.3-0.1-0.7,0-1l0-0.1l0-0.1c0.1-0.2,0.2-0.4,0.4-0.5c0.1-0.1,0.3-0.1,0.4-0.1c0.1,0,0.2,0,0.3,0
	c0.3,0.1,0.5,0.2,0.5,0.4C165.9,425.5,165.9,425.9,165.7,426.4 M173,429.7l-2.9-0.9c0.2-0.1,0.4-0.3,0.6-0.5
	c0.5-0.4,0.8-1.1,1.2-2.2c0.4-1.3,0.4-2.5,0-3.3c-0.4-0.9-0.8-1.5-1.4-1.8c-0.4-0.3-1-0.5-1.9-0.8c-0.5-0.2-1-0.2-1.5-0.2
	c-0.5,0-1,0.1-1.5,0.3c-0.8,0.4-1.5,0.9-1.9,1.6c-0.3,0.4-0.5,0.7-0.6,0.9c-0.1,0.3-0.2,0.6-0.3,0.9l-0.2,0.8l-0.1,0.6l0,0.4
	c0,0.3,0,0.7,0,1c0,0.2,0.1,0.3,0.1,0.4l0,0.1c0,0.1,0.1,0.3,0.1,0.4c0.3,0.7,0.8,1.1,1.6,1.3c0.3,0.1,0.7,0.2,1,0.2
	c0.4,0,0.8-0.1,1.1-0.2l-0.2,0.6l6.4,2l-1,3.4l2,0.5l3.8-12.3l-2-0.7L173,429.7z"/>
<path class="st0" d="M191.6,432.9c0.2,0.3,0.2,0.8,0,1.6c-0.2,0.7-0.7,1.3-1.3,1.7c-0.4,0.2-0.8,0.3-1.3,0.3c-0.3,0-0.6,0-0.9-0.1
	l-1-0.3c0.5,0,0.9-0.1,1.2-0.4c0.6-0.4,1-1,1.2-1.6l0.6-1.9l0.1,0l0.1,0l0.2,0C190.9,432.3,191.3,432.6,191.6,432.9 M186.8,434.2
	c-0.2,0-0.3,0.1-0.5,0.1h0c-0.2,0-0.3,0-0.5-0.1c-0.6-0.2-0.9-0.5-1-0.9c-0.2-0.4-0.2-0.9-0.1-1.3c0.2-0.5,0.4-0.9,0.7-1
	c0.1-0.1,0.3-0.1,0.5-0.1c0.2,0,0.4,0,0.6,0.1l1.6,0.4l-0.6,2C187.3,433.8,187.1,434.1,186.8,434.2 M187.9,428.1l1.1,0.3l-0.5,1.7
	l-1.1-0.3L187.9,428.1z M193.5,429.8l0.5-1.6l-7-2.2l-1,3.4l-0.3,0h-0.2c-0.3,0-0.7,0.2-1.2,0.5c-0.5,0.3-0.8,0.9-1.1,1.9
	c-0.3,0.8-0.2,1.6,0.3,2.4c0.2,0.4,0.5,0.7,0.9,1c-0.2,0-0.3-0.1-0.5-0.1c-0.3,0-0.7,0.1-1,0.2c-0.6,0.3-1,0.5-1.1,0.9l-0.2,0.5l0,0
	c-0.1,0.3,0,0.6,0,0.8l0,0.1l0.2,0.2c0.1,0.1,0.2,0.2,0.4,0.3l0.2,0.1l0.1,0c0.1,0,0.2,0,0.3,0c0.2,0,0.3,0,0.6-0.1
	c0.2-0.1,0.6-0.3,0.7-0.6l0,0l0.1-0.7c0,0,0,0,0,0l0.2-0.1c0.1,0,0.3,0,0.6,0.1l0.2,0.1l0.1,0l0.2,0.1l0.2,0l0.1,0l0.2,0.1l0.2,0.1
	l1,0.2l0.9,0.2l0.5,0.1l0.4,0.1l0.4,0h0.4c0.3,0,0.5,0,0.8,0l0.7-0.1c0.6-0.2,1.1-0.4,1.5-0.8l0.2-0.2l0.2-0.2l0.3-0.4l0-0.1
	c0.1-0.1,0.1-0.2,0.1-0.3c0,0,0-0.1,0-0.1l0-0.1l0.2-0.5c0.1-0.2,0.1-0.4,0.1-0.5l0-0.1c0-0.2,0-0.4,0-0.7c0-0.5-0.1-0.9-0.2-1.2
	l0,0l0,0c-0.4-0.6-0.8-1-1.3-1.3c0,0-0.1,0-0.1-0.1c-0.1,0-0.1-0.1-0.2-0.1l-0.1,0c-0.1,0-0.1,0-0.2-0.1l0,0l-0.8-0.3l-0.2-0.1
	l0.5-1.7L193.5,429.8z"/>
<path class="st0" d="M208.3,436.3c-0.2-0.5-0.5-1-1-1.3c-0.5-0.3-1-0.6-1.6-0.7l0,0l-0.4,0l-0.5-0.1h-0.1l0.3-1.4l1.6,0.6l0.3-1.7
	l-7-1.7l-2.2,9l1.8,0.4l1.9-7.6l1.7,0.4l-2,7.6l2.2,0.5l1.1-4.3c0.1-0.1,0.1-0.1,0.1-0.1l0,0l0,0c0,0,0,0,0.1,0c0.1,0,0.1,0,0.2,0
	c0.6,0.1,1,0.4,1.2,0.7c0.3,0.4,0.4,0.7,0.4,1.2l0,0.4l0,0.1l0,0.1l0,0.1l0,0l0,0.2l-0.1,0.4l0,0l-0.1,0.4l-0.1,0.2l-0.2,0.4
	c0,0.1-0.2,0.4-0.8,1c-0.4,0.4-1.1,0.7-1.9,0.7l-0.3,0l-0.2,0h-0.1l-0.3,0l-0.1,0l-0.5-0.1h0c0,0-0.4,0-1.5-0.3l-0.6-0.2l-0.7-0.3
	c-0.6-0.3-1-0.5-1.4-0.7c-0.8-0.5-1.3-1.1-1.5-1.6c-0.3-0.8-0.3-1.8,0-3l0-0.2l0.1-0.4l0.3-0.6c0.3-0.3,0.5-0.6,0.7-0.7l0.3-0.2
	l0.3-0.2l0.8-0.3l-0.8-1.5l-0.7,0.3l-0.3,0.2l-0.3,0.2l-0.3,0.3c-0.4,0.3-0.7,0.6-0.9,1l-0.2,0.3l-0.1,0.2l-0.1,0.2l-0.1,0.3
	l-0.1,0.3l-0.2,0.8l-0.1,0.7c-0.1,0.6-0.1,1.1-0.1,1.5c0,1.1,0.4,2,1.1,2.7c0.7,0.7,1.3,1.2,2,1.5l0.6,0.3l0.2,0.1l0.2,0.1l0.1,0
	l0.5,0.2l0.1,0l0.1,0l0.1,0l0.3,0.1l0.9,0.2l0.9,0.2l0.9,0.1l0.8,0.1c0.2,0,0.3,0,0.5,0c1,0,2-0.2,2.9-0.7c0.4-0.2,0.7-0.5,1.1-0.9
	l0.1-0.2l0.2-0.2l0.2-0.5c0.1-0.3,0.3-0.5,0.3-0.8c0.1-0.3,0.2-0.6,0.2-0.8l0-0.2l0.1-0.5l0-0.5l0-0.4v0
	C208.5,437.2,208.4,436.7,208.3,436.3"/>
<path class="st0" d="M216.4,432.3c0.3,0.2,0.7,0.4,1.1,0.4h0.2l0,0c0.6-0.1,1-0.3,1.2-0.6c0.3-0.3,0.4-0.6,0.5-1.1l0-0.4l0-0.1
	c-0.1-0.4-0.3-0.7-0.7-1c-0.3-0.2-0.7-0.3-1.1-0.4c-0.2,0-0.4,0-0.9,0.2c-0.4,0.1-0.9,0.5-0.9,1.4l0,0.5
	C215.8,431.9,216.2,432.1,216.4,432.3"/>
<path class="st0" d="M219.7,440.5c-0.3,0.4-0.5,0.7-0.8,0.8l-0.3,0.1l0,0h-0.1l-0.2,0l-0.2,0l-1.4,0l0.1-3.8V437
	c0-0.6,0.1-1.1,0.4-1.6c0.1-0.2,0.3-0.5,0.9-0.5v-0.5l0,0.5c0.3,0,0.6,0.1,1,0.4c0.3,0.2,0.6,0.6,0.9,1.1c0.2,0.5,0.3,1.2,0.3,2.1
	C220.2,439.4,220,440.1,219.7,440.5 M220.9,435c-0.7-1-1.7-1.5-3-1.6h-0.2c-0.9,0-1.6,0.3-2.1,0.9c-0.5,0.6-0.8,1.4-0.9,2.5
	l-0.1,4.4l-2,0l0.2-7.9l-2.1-0.2l-0.2,9.5l8,0.2c0.8,0,1.5-0.3,2-0.8c0.5-0.5,0.9-1.1,1-1.8l0.1-0.5l0-0.3l0-0.2l0-0.2v-0.7
	C221.8,437.2,221.5,436,220.9,435"/>
<path class="st0" d="M89.4,434l-1,0.3l-1.3-4l0,0l0-0.2l-0.1-0.1l0-0.1c-0.1-0.4-0.2-0.8-0.1-1.2c0.1-0.4,0.5-0.6,0.9-0.7
	c0.1,0,0.3-0.1,0.5-0.1c0.4,0,0.7,0.1,1.1,0.3c0.6,0.4,1.1,1.1,1.5,2.2l0.2,0.6l0.1,0.6c0,0.3,0,0.6,0,0.8c-0.2,0.5-0.4,0.8-0.7,1
	C90,433.7,89.6,433.9,89.4,434 M88.2,437.3l-0.1,0.3c-0.1,0.1-0.2,0.3-0.5,0.5l-0.3,0.2l-0.4,0.2c-0.1,0-0.2,0-0.3,0.1l-0.1,0
	l-0.7,0.2l-0.3,0.1l-0.1,0c-0.2,0-0.2-0.1-0.2-0.1c0-0.1,0-0.2,0-0.4c0-0.1,0-0.1,0.1-0.1l0.6-0.3v-0.3c0-0.2-0.1-0.4-0.3-0.6
	l-0.2-0.2l-0.1-0.1l1.9-0.6l0.3,0.3c0.2,0.2,0.5,0.3,0.8,0.4C88.2,437.2,88.2,437.3,88.2,437.3 M91.4,435.8
	c-0.2-0.1-0.3-0.8-0.3-0.8l0.6-0.4l0.4-0.5l0.2-0.4c0.2-0.3,0.3-0.7,0.3-1c0.1-0.4,0.1-0.7,0.1-1.1c-0.1-0.8-0.2-1.4-0.3-1.8
	l-0.2-0.5l-0.2-0.5l-0.3-0.5l-0.2-0.4l0,0c-0.3-0.5-0.8-0.9-1.3-1.2c-0.5-0.3-1.1-0.5-1.6-0.6c-0.1,0-0.1,0-0.2,0
	c-0.5,0-1,0.1-1.7,0.3c-0.2,0.1-0.3,0.2-0.5,0.3c-0.2,0.1-0.4,0.2-0.5,0.4c-0.4,0.3-0.8,0.8-0.9,1.5c-0.2,0.6-0.1,1.3,0.2,2.3
	l1.4,4.2l-1.6,0.6l-2.6-7.6l-2.2,0.8l3,9l0.8-0.3l-0.1,0.1c-0.4,0.3-0.6,0.8-0.5,1.3l0.1,0.3l0.1,0.3c0.3,1,1,1.2,1.4,1.2
	c0.2,0,0.4,0,0.6-0.1l1-0.3l1-0.3l0.9-0.3l0.8-0.4c0.8-0.4,1.1-1,1.2-1.4l0.1-0.2l0-0.3l0-0.1l0.1-0.2c0-0.1,0-0.1,0.1-0.1l0.3-0.2
	c1,1,2.1,0.1,2.1,0.1l-0.4-1.3C92.4,435.5,91.6,435.9,91.4,435.8"/>
</svg>
